G04 #@! TF.GenerationSoftware,KiCad,Pcbnew,(5.0.1-3-g963ef8bb5)*
G04 #@! TF.CreationDate,2019-03-22T18:21:40+01:00*
G04 #@! TF.ProjectId,Arm_stepper,41726D5F737465707065722E6B696361,rev?*
G04 #@! TF.SameCoordinates,Original*
G04 #@! TF.FileFunction,Legend,Bot*
G04 #@! TF.FilePolarity,Positive*
%FSLAX46Y46*%
G04 Gerber Fmt 4.6, Leading zero omitted, Abs format (unit mm)*
G04 Created by KiCad (PCBNEW (5.0.1-3-g963ef8bb5)) date 2019 March 22, Friday 18:21:40*
%MOMM*%
%LPD*%
G01*
G04 APERTURE LIST*
%ADD10C,0.150000*%
%ADD11C,0.900000*%
%ADD12C,2.400000*%
%ADD13R,2.400000X2.400000*%
%ADD14O,1.998980X1.998980*%
%ADD15R,1.998980X1.998980*%
%ADD16C,3.000000*%
%ADD17C,2.999740*%
%ADD18C,1.100000*%
%ADD19R,1.700000X1.700000*%
%ADD20O,1.700000X1.700000*%
%ADD21R,1.600000X1.600000*%
%ADD22C,1.600000*%
%ADD23C,4.000000*%
%ADD24R,2.200000X2.200000*%
%ADD25C,2.200000*%
%ADD26C,1.500000*%
G04 APERTURE END LIST*
%LPC*%
D10*
G36*
X167500000Y-135500000D02*
X167750000Y-135500000D01*
X167750000Y-137000000D01*
X167500000Y-137000000D01*
X167500000Y-135500000D01*
G37*
X167500000Y-135500000D02*
X167750000Y-135500000D01*
X167750000Y-137000000D01*
X167500000Y-137000000D01*
X167500000Y-135500000D01*
G36*
X162000000Y-135500000D02*
X161500000Y-135500000D01*
X161500000Y-137000000D01*
X162000000Y-137000000D01*
X162000000Y-135500000D01*
G37*
X162000000Y-135500000D02*
X161500000Y-135500000D01*
X161500000Y-137000000D01*
X162000000Y-137000000D01*
X162000000Y-135500000D01*
G36*
X162000000Y-135500000D02*
X167500000Y-135500000D01*
X167500000Y-137000000D01*
X162000000Y-137000000D01*
X162000000Y-135500000D01*
G37*
X162000000Y-135500000D02*
X167500000Y-135500000D01*
X167500000Y-137000000D01*
X162000000Y-137000000D01*
X162000000Y-135500000D01*
G36*
X161500000Y-117500000D02*
X161500000Y-120500000D01*
X168000000Y-120500000D01*
X168000000Y-117000000D01*
X161500000Y-117000000D01*
X161500000Y-117500000D01*
G37*
X161500000Y-117500000D02*
X161500000Y-120500000D01*
X168000000Y-120500000D01*
X168000000Y-117000000D01*
X161500000Y-117000000D01*
X161500000Y-117500000D01*
G36*
X113000000Y-135500000D02*
X119000000Y-135500000D01*
X119000000Y-137500000D01*
X113000000Y-137500000D01*
X113000000Y-135500000D01*
G37*
X113000000Y-135500000D02*
X119000000Y-135500000D01*
X119000000Y-137500000D01*
X113000000Y-137500000D01*
X113000000Y-135500000D01*
G36*
X113000000Y-117000000D02*
X113000000Y-120500000D01*
X119000000Y-120500000D01*
X119000000Y-117000000D01*
X113000000Y-117000000D01*
G37*
X113000000Y-117000000D02*
X113000000Y-120500000D01*
X119000000Y-120500000D01*
X119000000Y-117000000D01*
X113000000Y-117000000D01*
G36*
X158030000Y-110704000D02*
X172000000Y-110704000D01*
X172000000Y-117308000D01*
X158030000Y-117308000D01*
X158030000Y-110704000D01*
G37*
X158030000Y-110704000D02*
X172000000Y-110704000D01*
X172000000Y-117308000D01*
X158030000Y-117308000D01*
X158030000Y-110704000D01*
G36*
X157826800Y-137069200D02*
X171796800Y-137069200D01*
X171796800Y-143673200D01*
X157826800Y-143673200D01*
X157826800Y-137069200D01*
G37*
X157826800Y-137069200D02*
X171796800Y-137069200D01*
X171796800Y-143673200D01*
X157826800Y-143673200D01*
X157826800Y-137069200D01*
G36*
X109016800Y-137109200D02*
X122986800Y-137109200D01*
X122986800Y-143713200D01*
X109016800Y-143713200D01*
X109016800Y-137109200D01*
G37*
X109016800Y-137109200D02*
X122986800Y-137109200D01*
X122986800Y-143713200D01*
X109016800Y-143713200D01*
X109016800Y-137109200D01*
G36*
X109220000Y-110744000D02*
X123190000Y-110744000D01*
X123190000Y-117348000D01*
X109220000Y-117348000D01*
X109220000Y-110744000D01*
G37*
X109220000Y-110744000D02*
X123190000Y-110744000D01*
X123190000Y-117348000D01*
X109220000Y-117348000D01*
X109220000Y-110744000D01*
D11*
G04 #@! TO.C,J9*
X42464509Y-116418000D03*
X42464509Y-120818000D03*
G04 #@! TD*
D12*
G04 #@! TO.C,J1*
X46700000Y-102870000D03*
D13*
X46700000Y-99370000D03*
G04 #@! TD*
D14*
G04 #@! TO.C,J11*
X72620000Y-152500000D03*
D15*
X65000000Y-152500000D03*
D14*
X67540000Y-152500000D03*
X70080000Y-152500000D03*
X75160000Y-152500000D03*
G04 #@! TD*
G04 #@! TO.C,J10*
X59120000Y-152500000D03*
D15*
X51500000Y-152500000D03*
D14*
X54040000Y-152500000D03*
X56580000Y-152500000D03*
X61660000Y-152500000D03*
G04 #@! TD*
D16*
G04 #@! TO.C,*
X53000000Y-127000000D03*
G04 #@! TD*
G04 #@! TO.C,*
X105400000Y-153500000D03*
G04 #@! TD*
G04 #@! TO.C,M3*
X188000000Y-152000000D03*
G04 #@! TD*
D17*
G04 #@! TO.C,JP4*
X171492000Y-105116000D03*
X171492000Y-97960000D03*
G04 #@! TD*
D13*
G04 #@! TO.C,J3*
X159810000Y-150960000D03*
D12*
X163310000Y-150960000D03*
X166810000Y-150960000D03*
X170310000Y-150960000D03*
G04 #@! TD*
D14*
G04 #@! TO.C,J5*
X42500000Y-111040000D03*
D15*
X42500000Y-108500000D03*
D18*
X39960000Y-108500000D03*
X39960000Y-111040000D03*
G04 #@! TD*
D17*
G04 #@! TO.C,JP4*
X122682000Y-98000000D03*
X122682000Y-105156000D03*
G04 #@! TD*
D13*
G04 #@! TO.C,J1*
X41910000Y-99370000D03*
D12*
X41910000Y-102870000D03*
G04 #@! TD*
G04 #@! TO.C,J3*
X121500000Y-151000000D03*
X118000000Y-151000000D03*
X114500000Y-151000000D03*
D13*
X111000000Y-151000000D03*
G04 #@! TD*
D19*
G04 #@! TO.C,J4*
X71374000Y-111150400D03*
D20*
X73914000Y-111150400D03*
X76454000Y-111150400D03*
X78994000Y-111150400D03*
X81534000Y-111150400D03*
X84074000Y-111150400D03*
G04 #@! TD*
D21*
G04 #@! TO.C,J8*
X46990000Y-146050000D03*
D22*
X46990000Y-143280000D03*
X46990000Y-140510000D03*
X46990000Y-137740000D03*
X46990000Y-134970000D03*
X44150000Y-144665000D03*
X44150000Y-141895000D03*
X44150000Y-139125000D03*
X44150000Y-136355000D03*
D23*
X46690000Y-128010000D03*
X46690000Y-153010000D03*
G04 #@! TD*
D19*
G04 #@! TO.C,JP1*
X52918360Y-132105400D03*
D20*
X52918360Y-134645400D03*
G04 #@! TD*
G04 #@! TO.C,FAN*
X91694000Y-114096800D03*
D19*
X91694000Y-111556800D03*
G04 #@! TD*
D24*
G04 #@! TO.C,SW2*
X97750000Y-152400000D03*
D18*
X97750000Y-154940000D03*
D25*
X100290000Y-152400000D03*
D18*
X100290000Y-154940000D03*
G04 #@! TD*
D24*
G04 #@! TO.C,SW3*
X85050000Y-152400000D03*
D18*
X85050000Y-154940000D03*
D25*
X87590000Y-152400000D03*
D18*
X87590000Y-154940000D03*
G04 #@! TD*
G04 #@! TO.C,SW4*
X93940000Y-154940000D03*
D25*
X93940000Y-152400000D03*
D18*
X91400000Y-154940000D03*
D24*
X91400000Y-152400000D03*
G04 #@! TD*
D18*
G04 #@! TO.C,SW5*
X81240000Y-154940000D03*
D25*
X81240000Y-152400000D03*
D18*
X78700000Y-154940000D03*
D24*
X78700000Y-152400000D03*
G04 #@! TD*
D26*
G04 #@! TO.C,Y1*
X62687200Y-124104400D03*
X62687200Y-128984400D03*
G04 #@! TD*
D16*
G04 #@! TO.C,M3*
X188000000Y-100000000D03*
G04 #@! TD*
D19*
G04 #@! TO.C,SWD*
X72300000Y-133900000D03*
D20*
X72300000Y-136440000D03*
G04 #@! TD*
M02*
