M48
;DRILL file {KiCad (5.0.1-3-g963ef8bb5)} date 2019 March 22, Friday 18:21:42
;FORMAT={-:-/ absolute / metric / decimal}
FMAT,2
METRIC,TZ
T1C0.400
T2C0.800
T3C1.000
T4C1.097
T5C1.100
T6C1.200
T7C1.501
T8C3.200
T9C0.900
T10C1.100
T11C3.000
%
G90
G05
M71
T1
X39.5Y-114.
X39.5Y-123.
X42.55Y-113.75
X43.Y-119.
X44.Y-105.75
X44.12Y-120.61
X44.5Y-123.25
X44.75Y-106.75
X45.Y-110.
X45.Y-114.
X45.8Y-111.7
X47.Y-116.
X47.5Y-108.5
X47.5Y-114.5
X47.5Y-120.438
X48.6Y-121.3
X48.938Y-124.
X49.775Y-133.2
X49.85Y-119.3
X50.038Y-115.521
X50.15Y-130.35
X50.9Y-120.4
X51.2Y-117.3
X51.25Y-109.5
X51.375Y-145.475
X51.575Y-149.65
X51.75Y-122.
X52.8Y-119.2
X52.825Y-129.825
X52.95Y-105.75
X53.625Y-146.15
X53.925Y-143.225
X54.879Y-137.32
X55.1Y-136.025
X55.25Y-134.722
X55.447Y-119.28
X55.5Y-110.5
X55.875Y-105.65
X56.162Y-132.601
X56.45Y-111.775
X58.325Y-105.65
X58.55Y-145.3
X58.8Y-119.5
X59.045Y-134.915
X59.045Y-137.455
X59.045Y-139.995
X59.045Y-142.535
X59.329Y-116.424
X59.625Y-132.601
X59.974Y-112.532
X60.325Y-109.1
X61.375Y-121.875
X61.55Y-134.075
X61.55Y-137.475
X61.975Y-148.825
X62.006Y-115.672
X62.175Y-145.35
X62.75Y-126.75
X63.275Y-141.2
X63.287Y-116.977
X63.708Y-111.196
X64.003Y-106.177
X64.375Y-137.15
X64.725Y-132.1
X65.15Y-134.075
X65.55Y-142.175
X65.75Y-145.35
X65.8Y-148.875
X65.959Y-124.725
X66.446Y-140.259
X66.75Y-107.25
X66.792Y-126.175
X67.575Y-119.802
X68.491Y-134.906
X68.5Y-109.25
X68.5Y-110.674
X68.513Y-107.5
X68.54Y-117.23
X69.799Y-124.225
X70.683Y-142.387
X71.8Y-118.85
X72.162Y-112.6
X72.825Y-118.6
X73.Y-132.2
X73.05Y-147.65
X73.05Y-149.775
X73.2Y-142.375
X73.36Y-119.57
X73.825Y-107.475
X73.965Y-121.539
X74.01Y-131.12
X74.265Y-127.716
X74.3Y-138.725
X74.525Y-143.875
X75.875Y-123.728
X75.975Y-116.925
X76.2Y-145.112
X76.302Y-131.42
X76.35Y-138.975
X76.45Y-113.9
X76.95Y-140.825
X77.125Y-119.475
X77.3Y-137.125
X77.368Y-130.556
X78.125Y-115.975
X78.268Y-134.605
X78.55Y-139.125
X79.Y-127.75
X79.736Y-131.115
X79.75Y-119.25
X79.75Y-143.4
X79.8Y-141.3
X80.Y-139.4
X80.594Y-123.881
X80.725Y-137.275
X80.925Y-107.55
X81.376Y-123.257
X81.489Y-127.794
X81.495Y-131.214
X81.686Y-124.694
X82.55Y-145.112
X82.99Y-122.3
X83.063Y-134.488
X83.5Y-133.
X83.7Y-137.175
X83.825Y-140.782
X84.7Y-115.3
X84.866Y-122.175
X85.2Y-125.3
X85.218Y-129.359
X85.5Y-128.4
X85.842Y-133.574
X86.175Y-137.075
X86.3Y-123.725
X86.875Y-114.4
X87.075Y-112.8
X87.199Y-122.608
X87.2Y-109.8
X87.375Y-120.
X88.225Y-111.425
X88.675Y-114.425
X88.7Y-119.975
X88.875Y-109.775
X88.9Y-145.112
X89.075Y-113.05
X89.256Y-98.
X89.306Y-105.156
X89.9Y-126.875
X90.231Y-131.175
X90.835Y-124.979
X91.4Y-105.5
X91.775Y-126.875
X92.903Y-123.078
X92.975Y-105.55
X94.25Y-130.25
X94.9Y-129.3
X95.25Y-145.112
X95.525Y-125.1
X95.91Y-110.287
X95.91Y-111.506
X95.925Y-113.625
X95.925Y-116.425
X95.925Y-119.15
X95.961Y-105.613
X95.961Y-108.102
X96.025Y-122.225
X96.977Y-136.144
X96.977Y-138.144
X97.875Y-130.
X98.2Y-125.175
X98.977Y-136.144
X98.977Y-138.144
X100.977Y-136.144
X100.977Y-138.144
X102.977Y-136.144
X102.977Y-138.144
X104.2Y-144.
X104.977Y-136.144
X104.977Y-138.144
X106.462Y-130.6
X107.493Y-133.604
X107.5Y-125.
X109.017Y-120.142
X109.068Y-119.024
X109.982Y-138.125
X109.982Y-139.125
X109.982Y-140.125
X109.982Y-141.125
X109.982Y-142.125
X109.982Y-143.125
X110.185Y-111.658
X110.185Y-112.658
X110.185Y-113.658
X110.185Y-114.658
X110.185Y-115.658
X110.185Y-116.658
X110.856Y-126.512
X110.886Y-127.859
X110.904Y-125.513
X110.947Y-105.156
X110.982Y-138.125
X110.982Y-139.125
X110.982Y-140.125
X110.982Y-141.125
X110.982Y-142.125
X110.982Y-143.125
X111.1Y-146.21
X111.185Y-111.658
X111.185Y-112.658
X111.185Y-113.658
X111.185Y-114.658
X111.185Y-115.658
X111.185Y-116.658
X111.982Y-138.125
X111.982Y-139.125
X111.982Y-140.125
X111.982Y-141.125
X111.982Y-142.125
X111.982Y-143.125
X112.185Y-111.658
X112.185Y-112.658
X112.185Y-113.658
X112.185Y-114.658
X112.185Y-115.658
X112.185Y-116.658
X112.903Y-105.156
X112.982Y-138.125
X112.982Y-139.125
X112.982Y-140.125
X112.982Y-141.125
X112.982Y-142.125
X112.982Y-143.125
X113.185Y-111.658
X113.185Y-112.658
X113.185Y-113.658
X113.185Y-114.658
X113.185Y-115.658
X113.185Y-116.658
X113.45Y-117.6
X113.45Y-118.7
X113.45Y-119.7
X113.5Y-135.95
X113.5Y-136.95
X113.982Y-138.125
X113.982Y-139.125
X113.982Y-140.125
X113.982Y-141.125
X113.982Y-142.125
X113.982Y-143.125
X114.185Y-111.658
X114.185Y-112.658
X114.185Y-113.658
X114.185Y-114.658
X114.185Y-115.658
X114.185Y-116.658
X114.55Y-119.7
X114.6Y-117.55
X114.6Y-118.65
X114.6Y-136.95
X114.65Y-135.9
X114.982Y-138.125
X114.982Y-139.125
X114.982Y-140.125
X114.982Y-141.125
X114.982Y-142.125
X114.982Y-143.125
X115.185Y-111.658
X115.185Y-112.658
X115.185Y-113.658
X115.185Y-114.658
X115.185Y-115.658
X115.185Y-116.658
X115.65Y-117.6
X115.65Y-118.7
X115.7Y-135.95
X115.75Y-119.75
X115.8Y-137.
X115.982Y-138.125
X115.982Y-139.125
X115.982Y-140.125
X115.982Y-141.125
X115.982Y-142.125
X115.982Y-143.125
X116.185Y-111.658
X116.185Y-112.658
X116.185Y-113.658
X116.185Y-114.658
X116.185Y-115.658
X116.185Y-116.658
X116.332Y-105.156
X116.95Y-117.6
X116.95Y-118.7
X116.982Y-138.125
X116.982Y-139.125
X116.982Y-140.125
X116.982Y-141.125
X116.982Y-142.125
X116.982Y-143.125
X117.Y-135.95
X117.05Y-119.75
X117.1Y-137.
X117.185Y-111.658
X117.185Y-112.658
X117.185Y-113.658
X117.185Y-114.658
X117.185Y-115.658
X117.185Y-116.658
X117.982Y-138.125
X117.982Y-139.125
X117.982Y-140.125
X117.982Y-141.125
X117.982Y-142.125
X117.982Y-143.125
X118.185Y-111.658
X118.185Y-112.658
X118.185Y-113.658
X118.185Y-114.658
X118.185Y-115.658
X118.185Y-116.658
X118.25Y-117.65
X118.25Y-118.75
X118.25Y-119.75
X118.3Y-136.
X118.3Y-137.
X118.982Y-138.125
X118.982Y-139.125
X118.982Y-140.125
X118.982Y-141.125
X118.982Y-142.125
X118.982Y-143.125
X119.185Y-111.658
X119.185Y-112.658
X119.185Y-113.658
X119.185Y-114.658
X119.185Y-115.658
X119.185Y-116.658
X119.982Y-138.125
X119.982Y-139.125
X119.982Y-140.125
X119.982Y-141.125
X119.982Y-142.125
X119.982Y-143.125
X120.04Y-105.156
X120.185Y-111.658
X120.185Y-112.658
X120.185Y-113.658
X120.185Y-114.658
X120.185Y-115.658
X120.185Y-116.658
X120.982Y-138.125
X120.982Y-139.125
X120.982Y-140.125
X120.982Y-141.125
X120.982Y-142.125
X120.982Y-143.125
X121.05Y-126.25
X121.185Y-111.658
X121.185Y-112.658
X121.185Y-113.658
X121.185Y-114.658
X121.185Y-115.658
X121.185Y-116.658
X121.2Y-129.5
X121.982Y-138.125
X121.982Y-139.125
X121.982Y-140.125
X121.982Y-141.125
X121.982Y-142.125
X121.982Y-143.125
X122.185Y-111.658
X122.185Y-112.658
X122.185Y-113.658
X122.185Y-114.658
X122.185Y-115.658
X122.185Y-116.658
X122.44Y-146.08
X122.53Y-118.872
X122.58Y-120.294
X123.241Y-133.96
X126.035Y-134.976
X126.5Y-133.
X126.644Y-119.786
X127.Y-125.
X127.102Y-135.839
X127.102Y-137.839
X127.203Y-116.484
X128.8Y-144.
X129.102Y-135.839
X129.102Y-137.839
X131.102Y-135.839
X131.102Y-137.839
X131.724Y-105.613
X132.5Y-125.8
X132.737Y-133.
X132.944Y-107.036
X133.1Y-130.1
X133.102Y-135.839
X133.102Y-137.839
X133.198Y-108.763
X133.198Y-110.947
X134.25Y-121.5
X134.62Y-134.922
X135.102Y-135.839
X135.102Y-137.839
X135.128Y-131.775
X135.382Y-108.153
X135.382Y-110.153
X135.8Y-123.966
X136.652Y-135.839
X136.652Y-137.839
X137.382Y-108.153
X137.382Y-110.153
X138.652Y-135.839
X139.382Y-108.153
X139.382Y-110.153
X140.652Y-135.839
X141.382Y-108.153
X141.382Y-110.153
X142.652Y-135.839
X142.75Y-130.
X143.382Y-108.153
X143.382Y-110.153
X144.25Y-114.75
X144.3Y-134.211
X144.652Y-135.839
X144.652Y-137.839
X144.75Y-118.
X145.Y-123.5
X147.787Y-136.104
X147.787Y-138.104
X149.787Y-136.104
X149.787Y-138.104
X151.787Y-136.104
X151.787Y-138.104
X152.3Y-132.023
X153.01Y-143.96
X153.787Y-136.104
X153.787Y-138.104
X155.013Y-126.692
X156.303Y-133.564
X156.31Y-124.96
X157.827Y-120.102
X157.878Y-118.984
X158.792Y-138.085
X158.792Y-139.085
X158.792Y-140.085
X158.792Y-141.085
X158.792Y-142.085
X158.792Y-143.085
X158.995Y-111.618
X158.995Y-112.618
X158.995Y-113.618
X158.995Y-114.618
X158.995Y-115.618
X158.995Y-116.618
X159.49Y-146.05
X159.688Y-126.638
X159.757Y-105.116
X159.76Y-127.635
X159.792Y-138.085
X159.792Y-139.085
X159.792Y-140.085
X159.792Y-141.085
X159.792Y-142.085
X159.792Y-143.085
X159.995Y-111.618
X159.995Y-112.618
X159.995Y-113.618
X159.995Y-114.618
X159.995Y-115.618
X159.995Y-116.618
X160.792Y-138.085
X160.792Y-139.085
X160.792Y-140.085
X160.792Y-141.085
X160.792Y-142.085
X160.792Y-143.085
X160.995Y-111.618
X160.995Y-112.618
X160.995Y-113.618
X160.995Y-114.618
X160.995Y-115.618
X160.995Y-116.618
X161.792Y-138.085
X161.792Y-139.085
X161.792Y-140.085
X161.792Y-141.085
X161.792Y-142.085
X161.792Y-143.085
X161.862Y-105.116
X161.995Y-111.618
X161.995Y-112.618
X161.995Y-113.618
X161.995Y-114.618
X161.995Y-115.618
X161.995Y-116.618
X162.25Y-117.7
X162.25Y-118.8
X162.25Y-119.8
X162.3Y-136.05
X162.3Y-137.05
X162.792Y-138.085
X162.792Y-139.085
X162.792Y-140.085
X162.792Y-141.085
X162.792Y-142.085
X162.792Y-143.085
X162.995Y-111.618
X162.995Y-112.618
X162.995Y-113.618
X162.995Y-114.618
X162.995Y-115.618
X162.995Y-116.618
X163.35Y-119.8
X163.4Y-117.65
X163.4Y-118.75
X163.4Y-137.05
X163.45Y-136.
X163.792Y-138.085
X163.792Y-139.085
X163.792Y-140.085
X163.792Y-141.085
X163.792Y-142.085
X163.792Y-143.085
X163.995Y-111.618
X163.995Y-112.618
X163.995Y-113.618
X163.995Y-114.618
X163.995Y-115.618
X163.995Y-116.618
X164.45Y-117.7
X164.45Y-118.8
X164.5Y-136.05
X164.55Y-119.85
X164.6Y-137.1
X164.792Y-138.085
X164.792Y-139.085
X164.792Y-140.085
X164.792Y-141.085
X164.792Y-142.085
X164.792Y-143.085
X164.995Y-111.618
X164.995Y-112.618
X164.995Y-113.618
X164.995Y-114.618
X164.995Y-115.618
X164.995Y-116.618
X165.244Y-105.116
X165.75Y-117.7
X165.75Y-118.8
X165.792Y-138.085
X165.792Y-139.085
X165.792Y-140.085
X165.792Y-141.085
X165.792Y-142.085
X165.792Y-143.085
X165.8Y-136.05
X165.85Y-119.85
X165.9Y-137.1
X165.995Y-111.618
X165.995Y-112.618
X165.995Y-113.618
X165.995Y-114.618
X165.995Y-115.618
X165.995Y-116.618
X166.792Y-138.085
X166.792Y-139.085
X166.792Y-140.085
X166.792Y-141.085
X166.792Y-142.085
X166.792Y-143.085
X166.995Y-111.618
X166.995Y-112.618
X166.995Y-113.618
X166.995Y-114.618
X166.995Y-115.618
X166.995Y-116.618
X167.05Y-117.75
X167.05Y-118.85
X167.05Y-119.85
X167.1Y-136.1
X167.1Y-137.1
X167.792Y-138.085
X167.792Y-139.085
X167.792Y-140.085
X167.792Y-141.085
X167.792Y-142.085
X167.792Y-143.085
X167.995Y-111.618
X167.995Y-112.618
X167.995Y-113.618
X167.995Y-114.618
X167.995Y-115.618
X167.995Y-116.618
X168.792Y-138.085
X168.792Y-139.085
X168.792Y-140.085
X168.792Y-141.085
X168.792Y-142.085
X168.792Y-143.085
X168.85Y-105.116
X168.995Y-111.618
X168.995Y-112.618
X168.995Y-113.618
X168.995Y-114.618
X168.995Y-115.618
X168.995Y-116.618
X169.792Y-138.085
X169.792Y-139.085
X169.792Y-140.085
X169.792Y-141.085
X169.792Y-142.085
X169.792Y-143.085
X169.86Y-126.21
X169.995Y-111.618
X169.995Y-112.618
X169.995Y-113.618
X169.995Y-114.618
X169.995Y-115.618
X169.995Y-116.618
X170.01Y-127.26
X170.792Y-138.085
X170.792Y-139.085
X170.792Y-140.085
X170.792Y-141.085
X170.792Y-142.085
X170.792Y-143.085
X170.93Y-145.96
X170.995Y-111.618
X170.995Y-112.618
X170.995Y-113.618
X170.995Y-114.618
X170.995Y-115.618
X170.995Y-116.618
X171.34Y-118.832
X171.39Y-120.254
X172.051Y-133.92
X174.845Y-134.936
X175.31Y-132.96
X175.81Y-124.96
X175.912Y-135.799
X175.912Y-137.799
X177.61Y-143.96
X177.912Y-135.799
X177.912Y-137.799
X179.912Y-135.799
X179.912Y-137.799
X180.534Y-105.573
X181.31Y-125.76
X181.754Y-106.996
X181.91Y-130.06
X181.912Y-135.799
X181.912Y-137.799
X182.008Y-108.723
X182.008Y-110.907
X183.06Y-121.46
X183.5Y-133.5
X183.912Y-135.799
X183.912Y-137.799
X183.938Y-131.735
X184.192Y-108.113
X184.192Y-110.113
X185.Y-125.25
X185.Y-126.5
X185.462Y-135.799
X185.462Y-137.799
X186.192Y-108.113
X186.192Y-110.113
X186.75Y-129.25
X187.Y-125.25
X187.Y-126.75
X187.462Y-135.799
X187.462Y-137.799
X188.192Y-108.113
X188.192Y-110.113
X189.462Y-135.799
X189.462Y-137.799
X190.192Y-108.113
X190.192Y-110.113
X191.462Y-135.799
X191.462Y-137.799
T2
X62.687Y-124.104
X62.687Y-128.984
T3
X71.374Y-111.15
X73.914Y-111.15
X76.454Y-111.15
X78.994Y-111.15
X81.534Y-111.15
X84.074Y-111.15
X52.918Y-132.105
X52.918Y-134.645
X72.3Y-133.9
X72.3Y-136.44
X91.694Y-111.557
X91.694Y-114.097
X44.15Y-136.355
X44.15Y-139.125
X44.15Y-141.895
X44.15Y-144.665
X46.99Y-134.97
X46.99Y-137.74
X46.99Y-140.51
X46.99Y-143.28
X46.99Y-146.05
T4
X65.Y-152.5
X67.54Y-152.5
X70.08Y-152.5
X72.62Y-152.5
X75.16Y-152.5
X51.5Y-152.5
X54.04Y-152.5
X56.58Y-152.5
X59.12Y-152.5
X61.66Y-152.5
X42.5Y-108.5
X42.5Y-111.04
T5
X78.7Y-152.4
X81.24Y-152.4
X91.4Y-152.4
X93.94Y-152.4
X85.05Y-152.4
X87.59Y-152.4
X97.75Y-152.4
X100.29Y-152.4
T6
X159.81Y-150.96
X163.31Y-150.96
X166.81Y-150.96
X170.31Y-150.96
X41.91Y-99.37
X41.91Y-102.87
X46.7Y-99.37
X46.7Y-102.87
X111.Y-151.
X114.5Y-151.
X118.Y-151.
X121.5Y-151.
T7
X171.492Y-97.96
X171.492Y-105.116
X122.682Y-98.
X122.682Y-105.156
T8
X46.69Y-128.01
X46.69Y-153.01
T9
X42.465Y-116.418
X42.465Y-120.818
T10
X91.4Y-154.94
X93.94Y-154.94
X85.05Y-154.94
X87.59Y-154.94
X97.75Y-154.94
X100.29Y-154.94
X39.96Y-108.5
X39.96Y-111.04
X78.7Y-154.94
X81.24Y-154.94
T11
X53.Y-127.
X188.Y-100.
X188.Y-152.
X105.4Y-153.5
T0
M30
