G04 #@! TF.GenerationSoftware,KiCad,Pcbnew,(5.0.1-3-g963ef8bb5)*
G04 #@! TF.CreationDate,2019-03-13T09:11:41+01:00*
G04 #@! TF.ProjectId,Arm_stepper,41726D5F737465707065722E6B696361,rev?*
G04 #@! TF.SameCoordinates,Original*
G04 #@! TF.FileFunction,Soldermask,Bot*
G04 #@! TF.FilePolarity,Negative*
%FSLAX46Y46*%
G04 Gerber Fmt 4.6, Leading zero omitted, Abs format (unit mm)*
G04 Created by KiCad (PCBNEW (5.0.1-3-g963ef8bb5)) date 2019 March 13, Wednesday 09:11:41*
%MOMM*%
%LPD*%
G01*
G04 APERTURE LIST*
%ADD10C,0.150000*%
%ADD11C,0.100000*%
G04 APERTURE END LIST*
D10*
G36*
X167500000Y-135500000D02*
X167750000Y-135500000D01*
X167750000Y-137000000D01*
X167500000Y-137000000D01*
X167500000Y-135500000D01*
G37*
X167500000Y-135500000D02*
X167750000Y-135500000D01*
X167750000Y-137000000D01*
X167500000Y-137000000D01*
X167500000Y-135500000D01*
G36*
X162000000Y-135500000D02*
X161500000Y-135500000D01*
X161500000Y-137000000D01*
X162000000Y-137000000D01*
X162000000Y-135500000D01*
G37*
X162000000Y-135500000D02*
X161500000Y-135500000D01*
X161500000Y-137000000D01*
X162000000Y-137000000D01*
X162000000Y-135500000D01*
G36*
X162000000Y-135500000D02*
X167500000Y-135500000D01*
X167500000Y-137000000D01*
X162000000Y-137000000D01*
X162000000Y-135500000D01*
G37*
X162000000Y-135500000D02*
X167500000Y-135500000D01*
X167500000Y-137000000D01*
X162000000Y-137000000D01*
X162000000Y-135500000D01*
G36*
X161500000Y-117500000D02*
X161500000Y-120500000D01*
X168000000Y-120500000D01*
X168000000Y-117000000D01*
X161500000Y-117000000D01*
X161500000Y-117500000D01*
G37*
X161500000Y-117500000D02*
X161500000Y-120500000D01*
X168000000Y-120500000D01*
X168000000Y-117000000D01*
X161500000Y-117000000D01*
X161500000Y-117500000D01*
G36*
X113000000Y-135500000D02*
X119000000Y-135500000D01*
X119000000Y-137500000D01*
X113000000Y-137500000D01*
X113000000Y-135500000D01*
G37*
X113000000Y-135500000D02*
X119000000Y-135500000D01*
X119000000Y-137500000D01*
X113000000Y-137500000D01*
X113000000Y-135500000D01*
G36*
X113000000Y-117000000D02*
X113000000Y-120500000D01*
X119000000Y-120500000D01*
X119000000Y-117000000D01*
X113000000Y-117000000D01*
G37*
X113000000Y-117000000D02*
X113000000Y-120500000D01*
X119000000Y-120500000D01*
X119000000Y-117000000D01*
X113000000Y-117000000D01*
G36*
X158030000Y-110704000D02*
X172000000Y-110704000D01*
X172000000Y-117308000D01*
X158030000Y-117308000D01*
X158030000Y-110704000D01*
G37*
X158030000Y-110704000D02*
X172000000Y-110704000D01*
X172000000Y-117308000D01*
X158030000Y-117308000D01*
X158030000Y-110704000D01*
G36*
X157826800Y-137069200D02*
X171796800Y-137069200D01*
X171796800Y-143673200D01*
X157826800Y-143673200D01*
X157826800Y-137069200D01*
G37*
X157826800Y-137069200D02*
X171796800Y-137069200D01*
X171796800Y-143673200D01*
X157826800Y-143673200D01*
X157826800Y-137069200D01*
G36*
X109016800Y-137109200D02*
X122986800Y-137109200D01*
X122986800Y-143713200D01*
X109016800Y-143713200D01*
X109016800Y-137109200D01*
G37*
X109016800Y-137109200D02*
X122986800Y-137109200D01*
X122986800Y-143713200D01*
X109016800Y-143713200D01*
X109016800Y-137109200D01*
G36*
X109220000Y-110744000D02*
X123190000Y-110744000D01*
X123190000Y-117348000D01*
X109220000Y-117348000D01*
X109220000Y-110744000D01*
G37*
X109220000Y-110744000D02*
X123190000Y-110744000D01*
X123190000Y-117348000D01*
X109220000Y-117348000D01*
X109220000Y-110744000D01*
D11*
G36*
X100379590Y-154397045D02*
X100450429Y-154411136D01*
X100550523Y-154452597D01*
X100640607Y-154512789D01*
X100717211Y-154589393D01*
X100717213Y-154589396D01*
X100777403Y-154679477D01*
X100818864Y-154779571D01*
X100818864Y-154779573D01*
X100840000Y-154885829D01*
X100840000Y-154994171D01*
X100836851Y-155010000D01*
X100818864Y-155100429D01*
X100777403Y-155200523D01*
X100717211Y-155290607D01*
X100640607Y-155367211D01*
X100640604Y-155367213D01*
X100550523Y-155427403D01*
X100450429Y-155468864D01*
X100379590Y-155482955D01*
X100344171Y-155490000D01*
X100235829Y-155490000D01*
X100200410Y-155482955D01*
X100129571Y-155468864D01*
X100029477Y-155427403D01*
X99939396Y-155367213D01*
X99939393Y-155367211D01*
X99862789Y-155290607D01*
X99802597Y-155200523D01*
X99761136Y-155100429D01*
X99743149Y-155010000D01*
X99740000Y-154994171D01*
X99740000Y-154885829D01*
X99761136Y-154779573D01*
X99761136Y-154779571D01*
X99802597Y-154679477D01*
X99862787Y-154589396D01*
X99862789Y-154589393D01*
X99939393Y-154512789D01*
X100029477Y-154452597D01*
X100129571Y-154411136D01*
X100200410Y-154397045D01*
X100235829Y-154390000D01*
X100344171Y-154390000D01*
X100379590Y-154397045D01*
X100379590Y-154397045D01*
G37*
G36*
X97839590Y-154397045D02*
X97910429Y-154411136D01*
X98010523Y-154452597D01*
X98100607Y-154512789D01*
X98177211Y-154589393D01*
X98177213Y-154589396D01*
X98237403Y-154679477D01*
X98278864Y-154779571D01*
X98278864Y-154779573D01*
X98300000Y-154885829D01*
X98300000Y-154994171D01*
X98296851Y-155010000D01*
X98278864Y-155100429D01*
X98237403Y-155200523D01*
X98177211Y-155290607D01*
X98100607Y-155367211D01*
X98100604Y-155367213D01*
X98010523Y-155427403D01*
X97910429Y-155468864D01*
X97839590Y-155482955D01*
X97804171Y-155490000D01*
X97695829Y-155490000D01*
X97660410Y-155482955D01*
X97589571Y-155468864D01*
X97489477Y-155427403D01*
X97399396Y-155367213D01*
X97399393Y-155367211D01*
X97322789Y-155290607D01*
X97262597Y-155200523D01*
X97221136Y-155100429D01*
X97203149Y-155010000D01*
X97200000Y-154994171D01*
X97200000Y-154885829D01*
X97221136Y-154779573D01*
X97221136Y-154779571D01*
X97262597Y-154679477D01*
X97322787Y-154589396D01*
X97322789Y-154589393D01*
X97399393Y-154512789D01*
X97489477Y-154452597D01*
X97589571Y-154411136D01*
X97660410Y-154397045D01*
X97695829Y-154390000D01*
X97804171Y-154390000D01*
X97839590Y-154397045D01*
X97839590Y-154397045D01*
G37*
G36*
X94029590Y-154397045D02*
X94100429Y-154411136D01*
X94200523Y-154452597D01*
X94290607Y-154512789D01*
X94367211Y-154589393D01*
X94367213Y-154589396D01*
X94427403Y-154679477D01*
X94468864Y-154779571D01*
X94468864Y-154779573D01*
X94490000Y-154885829D01*
X94490000Y-154994171D01*
X94486851Y-155010000D01*
X94468864Y-155100429D01*
X94427403Y-155200523D01*
X94367211Y-155290607D01*
X94290607Y-155367211D01*
X94290604Y-155367213D01*
X94200523Y-155427403D01*
X94100429Y-155468864D01*
X94029590Y-155482955D01*
X93994171Y-155490000D01*
X93885829Y-155490000D01*
X93850410Y-155482955D01*
X93779571Y-155468864D01*
X93679477Y-155427403D01*
X93589396Y-155367213D01*
X93589393Y-155367211D01*
X93512789Y-155290607D01*
X93452597Y-155200523D01*
X93411136Y-155100429D01*
X93393149Y-155010000D01*
X93390000Y-154994171D01*
X93390000Y-154885829D01*
X93411136Y-154779573D01*
X93411136Y-154779571D01*
X93452597Y-154679477D01*
X93512787Y-154589396D01*
X93512789Y-154589393D01*
X93589393Y-154512789D01*
X93679477Y-154452597D01*
X93779571Y-154411136D01*
X93850410Y-154397045D01*
X93885829Y-154390000D01*
X93994171Y-154390000D01*
X94029590Y-154397045D01*
X94029590Y-154397045D01*
G37*
G36*
X91489590Y-154397045D02*
X91560429Y-154411136D01*
X91660523Y-154452597D01*
X91750607Y-154512789D01*
X91827211Y-154589393D01*
X91827213Y-154589396D01*
X91887403Y-154679477D01*
X91928864Y-154779571D01*
X91928864Y-154779573D01*
X91950000Y-154885829D01*
X91950000Y-154994171D01*
X91946851Y-155010000D01*
X91928864Y-155100429D01*
X91887403Y-155200523D01*
X91827211Y-155290607D01*
X91750607Y-155367211D01*
X91750604Y-155367213D01*
X91660523Y-155427403D01*
X91560429Y-155468864D01*
X91489590Y-155482955D01*
X91454171Y-155490000D01*
X91345829Y-155490000D01*
X91310410Y-155482955D01*
X91239571Y-155468864D01*
X91139477Y-155427403D01*
X91049396Y-155367213D01*
X91049393Y-155367211D01*
X90972789Y-155290607D01*
X90912597Y-155200523D01*
X90871136Y-155100429D01*
X90853149Y-155010000D01*
X90850000Y-154994171D01*
X90850000Y-154885829D01*
X90871136Y-154779573D01*
X90871136Y-154779571D01*
X90912597Y-154679477D01*
X90972787Y-154589396D01*
X90972789Y-154589393D01*
X91049393Y-154512789D01*
X91139477Y-154452597D01*
X91239571Y-154411136D01*
X91310410Y-154397045D01*
X91345829Y-154390000D01*
X91454171Y-154390000D01*
X91489590Y-154397045D01*
X91489590Y-154397045D01*
G37*
G36*
X87679590Y-154397045D02*
X87750429Y-154411136D01*
X87850523Y-154452597D01*
X87940607Y-154512789D01*
X88017211Y-154589393D01*
X88017213Y-154589396D01*
X88077403Y-154679477D01*
X88118864Y-154779571D01*
X88118864Y-154779573D01*
X88140000Y-154885829D01*
X88140000Y-154994171D01*
X88136851Y-155010000D01*
X88118864Y-155100429D01*
X88077403Y-155200523D01*
X88017211Y-155290607D01*
X87940607Y-155367211D01*
X87940604Y-155367213D01*
X87850523Y-155427403D01*
X87750429Y-155468864D01*
X87679590Y-155482955D01*
X87644171Y-155490000D01*
X87535829Y-155490000D01*
X87500410Y-155482955D01*
X87429571Y-155468864D01*
X87329477Y-155427403D01*
X87239396Y-155367213D01*
X87239393Y-155367211D01*
X87162789Y-155290607D01*
X87102597Y-155200523D01*
X87061136Y-155100429D01*
X87043149Y-155010000D01*
X87040000Y-154994171D01*
X87040000Y-154885829D01*
X87061136Y-154779573D01*
X87061136Y-154779571D01*
X87102597Y-154679477D01*
X87162787Y-154589396D01*
X87162789Y-154589393D01*
X87239393Y-154512789D01*
X87329477Y-154452597D01*
X87429571Y-154411136D01*
X87500410Y-154397045D01*
X87535829Y-154390000D01*
X87644171Y-154390000D01*
X87679590Y-154397045D01*
X87679590Y-154397045D01*
G37*
G36*
X85139590Y-154397045D02*
X85210429Y-154411136D01*
X85310523Y-154452597D01*
X85400607Y-154512789D01*
X85477211Y-154589393D01*
X85477213Y-154589396D01*
X85537403Y-154679477D01*
X85578864Y-154779571D01*
X85578864Y-154779573D01*
X85600000Y-154885829D01*
X85600000Y-154994171D01*
X85596851Y-155010000D01*
X85578864Y-155100429D01*
X85537403Y-155200523D01*
X85477211Y-155290607D01*
X85400607Y-155367211D01*
X85400604Y-155367213D01*
X85310523Y-155427403D01*
X85210429Y-155468864D01*
X85139590Y-155482955D01*
X85104171Y-155490000D01*
X84995829Y-155490000D01*
X84960410Y-155482955D01*
X84889571Y-155468864D01*
X84789477Y-155427403D01*
X84699396Y-155367213D01*
X84699393Y-155367211D01*
X84622789Y-155290607D01*
X84562597Y-155200523D01*
X84521136Y-155100429D01*
X84503149Y-155010000D01*
X84500000Y-154994171D01*
X84500000Y-154885829D01*
X84521136Y-154779573D01*
X84521136Y-154779571D01*
X84562597Y-154679477D01*
X84622787Y-154589396D01*
X84622789Y-154589393D01*
X84699393Y-154512789D01*
X84789477Y-154452597D01*
X84889571Y-154411136D01*
X84960410Y-154397045D01*
X84995829Y-154390000D01*
X85104171Y-154390000D01*
X85139590Y-154397045D01*
X85139590Y-154397045D01*
G37*
G36*
X81329590Y-154397045D02*
X81400429Y-154411136D01*
X81500523Y-154452597D01*
X81590607Y-154512789D01*
X81667211Y-154589393D01*
X81667213Y-154589396D01*
X81727403Y-154679477D01*
X81768864Y-154779571D01*
X81768864Y-154779573D01*
X81790000Y-154885829D01*
X81790000Y-154994171D01*
X81786851Y-155010000D01*
X81768864Y-155100429D01*
X81727403Y-155200523D01*
X81667211Y-155290607D01*
X81590607Y-155367211D01*
X81590604Y-155367213D01*
X81500523Y-155427403D01*
X81400429Y-155468864D01*
X81329590Y-155482955D01*
X81294171Y-155490000D01*
X81185829Y-155490000D01*
X81150410Y-155482955D01*
X81079571Y-155468864D01*
X80979477Y-155427403D01*
X80889396Y-155367213D01*
X80889393Y-155367211D01*
X80812789Y-155290607D01*
X80752597Y-155200523D01*
X80711136Y-155100429D01*
X80693149Y-155010000D01*
X80690000Y-154994171D01*
X80690000Y-154885829D01*
X80711136Y-154779573D01*
X80711136Y-154779571D01*
X80752597Y-154679477D01*
X80812787Y-154589396D01*
X80812789Y-154589393D01*
X80889393Y-154512789D01*
X80979477Y-154452597D01*
X81079571Y-154411136D01*
X81150410Y-154397045D01*
X81185829Y-154390000D01*
X81294171Y-154390000D01*
X81329590Y-154397045D01*
X81329590Y-154397045D01*
G37*
G36*
X78789590Y-154397045D02*
X78860429Y-154411136D01*
X78960523Y-154452597D01*
X79050607Y-154512789D01*
X79127211Y-154589393D01*
X79127213Y-154589396D01*
X79187403Y-154679477D01*
X79228864Y-154779571D01*
X79228864Y-154779573D01*
X79250000Y-154885829D01*
X79250000Y-154994171D01*
X79246851Y-155010000D01*
X79228864Y-155100429D01*
X79187403Y-155200523D01*
X79127211Y-155290607D01*
X79050607Y-155367211D01*
X79050604Y-155367213D01*
X78960523Y-155427403D01*
X78860429Y-155468864D01*
X78789590Y-155482955D01*
X78754171Y-155490000D01*
X78645829Y-155490000D01*
X78610410Y-155482955D01*
X78539571Y-155468864D01*
X78439477Y-155427403D01*
X78349396Y-155367213D01*
X78349393Y-155367211D01*
X78272789Y-155290607D01*
X78212597Y-155200523D01*
X78171136Y-155100429D01*
X78153149Y-155010000D01*
X78150000Y-154994171D01*
X78150000Y-154885829D01*
X78171136Y-154779573D01*
X78171136Y-154779571D01*
X78212597Y-154679477D01*
X78272787Y-154589396D01*
X78272789Y-154589393D01*
X78349393Y-154512789D01*
X78439477Y-154452597D01*
X78539571Y-154411136D01*
X78610410Y-154397045D01*
X78645829Y-154390000D01*
X78754171Y-154390000D01*
X78789590Y-154397045D01*
X78789590Y-154397045D01*
G37*
G36*
X47273378Y-151086859D02*
X47637354Y-151237622D01*
X47964929Y-151456501D01*
X48243499Y-151735071D01*
X48462378Y-152062646D01*
X48613141Y-152426622D01*
X48690000Y-152813016D01*
X48690000Y-153206984D01*
X48613141Y-153593378D01*
X48462378Y-153957354D01*
X48243499Y-154284929D01*
X47964929Y-154563499D01*
X47637354Y-154782378D01*
X47273378Y-154933141D01*
X46886984Y-155010000D01*
X46493016Y-155010000D01*
X46106622Y-154933141D01*
X45742646Y-154782378D01*
X45415071Y-154563499D01*
X45136501Y-154284929D01*
X44917622Y-153957354D01*
X44766859Y-153593378D01*
X44690000Y-153206984D01*
X44690000Y-152813016D01*
X44766859Y-152426622D01*
X44917622Y-152062646D01*
X45136501Y-151735071D01*
X45415071Y-151456501D01*
X45742646Y-151237622D01*
X46106622Y-151086859D01*
X46493016Y-151010000D01*
X46886984Y-151010000D01*
X47273378Y-151086859D01*
X47273378Y-151086859D01*
G37*
G36*
X105740935Y-152038429D02*
X105837534Y-152057644D01*
X105977607Y-152115664D01*
X106069879Y-152153884D01*
X106110517Y-152170717D01*
X106310085Y-152304065D01*
X106356197Y-152334876D01*
X106565124Y-152543803D01*
X106729284Y-152789485D01*
X106842356Y-153062467D01*
X106900000Y-153352261D01*
X106900000Y-153647739D01*
X106842356Y-153937533D01*
X106729284Y-154210515D01*
X106565124Y-154456197D01*
X106356197Y-154665124D01*
X106356194Y-154665126D01*
X106110517Y-154829283D01*
X105837534Y-154942356D01*
X105740935Y-154961571D01*
X105547739Y-155000000D01*
X105252261Y-155000000D01*
X105059065Y-154961571D01*
X104962466Y-154942356D01*
X104689483Y-154829283D01*
X104443806Y-154665126D01*
X104443803Y-154665124D01*
X104234876Y-154456197D01*
X104070716Y-154210515D01*
X103957644Y-153937533D01*
X103900000Y-153647739D01*
X103900000Y-153352261D01*
X103957644Y-153062467D01*
X104070716Y-152789485D01*
X104234876Y-152543803D01*
X104443803Y-152334876D01*
X104489915Y-152304065D01*
X104689483Y-152170717D01*
X104730122Y-152153884D01*
X104822393Y-152115664D01*
X104962466Y-152057644D01*
X105059065Y-152038429D01*
X105252261Y-152000000D01*
X105547739Y-152000000D01*
X105740935Y-152038429D01*
X105740935Y-152038429D01*
G37*
G36*
X79800000Y-153500000D02*
X77600000Y-153500000D01*
X77600000Y-151300000D01*
X79800000Y-151300000D01*
X79800000Y-153500000D01*
X79800000Y-153500000D01*
G37*
G36*
X92500000Y-153500000D02*
X90300000Y-153500000D01*
X90300000Y-151300000D01*
X92500000Y-151300000D01*
X92500000Y-153500000D01*
X92500000Y-153500000D01*
G37*
G36*
X188340935Y-150538429D02*
X188437534Y-150557644D01*
X188563870Y-150609974D01*
X188660437Y-150649973D01*
X188710517Y-150670717D01*
X188952920Y-150832687D01*
X188956197Y-150834876D01*
X189165124Y-151043803D01*
X189165126Y-151043806D01*
X189329283Y-151289483D01*
X189435361Y-151545578D01*
X189442356Y-151562467D01*
X189500000Y-151852261D01*
X189500000Y-152147739D01*
X189471372Y-152291659D01*
X189444527Y-152426622D01*
X189442356Y-152437533D01*
X189329284Y-152710515D01*
X189165124Y-152956197D01*
X188956197Y-153165124D01*
X188956194Y-153165126D01*
X188710517Y-153329283D01*
X188710516Y-153329284D01*
X188710515Y-153329284D01*
X188696553Y-153335067D01*
X188437534Y-153442356D01*
X188360258Y-153457727D01*
X188147739Y-153500000D01*
X187852261Y-153500000D01*
X187639742Y-153457727D01*
X187562466Y-153442356D01*
X187303447Y-153335067D01*
X187289485Y-153329284D01*
X187289484Y-153329284D01*
X187289483Y-153329283D01*
X187043806Y-153165126D01*
X187043803Y-153165124D01*
X186834876Y-152956197D01*
X186670716Y-152710515D01*
X186557644Y-152437533D01*
X186555474Y-152426622D01*
X186528628Y-152291659D01*
X186500000Y-152147739D01*
X186500000Y-151852261D01*
X186557644Y-151562467D01*
X186564640Y-151545578D01*
X186670717Y-151289483D01*
X186834874Y-151043806D01*
X186834876Y-151043803D01*
X187043803Y-150834876D01*
X187047080Y-150832687D01*
X187289483Y-150670717D01*
X187339564Y-150649973D01*
X187436130Y-150609974D01*
X187562466Y-150557644D01*
X187659065Y-150538429D01*
X187852261Y-150500000D01*
X188147739Y-150500000D01*
X188340935Y-150538429D01*
X188340935Y-150538429D01*
G37*
G36*
X100610857Y-151342272D02*
X100811042Y-151425191D01*
X100811045Y-151425193D01*
X100965523Y-151528412D01*
X100991213Y-151545578D01*
X101144422Y-151698787D01*
X101144424Y-151698790D01*
X101144425Y-151698791D01*
X101188634Y-151764955D01*
X101264809Y-151878958D01*
X101347728Y-152079143D01*
X101390000Y-152291658D01*
X101390000Y-152508342D01*
X101347728Y-152720857D01*
X101264809Y-152921042D01*
X101264807Y-152921045D01*
X101170312Y-153062467D01*
X101144422Y-153101213D01*
X100991213Y-153254422D01*
X100811042Y-153374809D01*
X100610857Y-153457728D01*
X100398342Y-153500000D01*
X100181658Y-153500000D01*
X99969143Y-153457728D01*
X99768958Y-153374809D01*
X99588787Y-153254422D01*
X99435578Y-153101213D01*
X99409689Y-153062467D01*
X99315193Y-152921045D01*
X99315191Y-152921042D01*
X99232272Y-152720857D01*
X99190000Y-152508342D01*
X99190000Y-152291658D01*
X99232272Y-152079143D01*
X99315191Y-151878958D01*
X99391366Y-151764955D01*
X99435575Y-151698791D01*
X99435576Y-151698790D01*
X99435578Y-151698787D01*
X99588787Y-151545578D01*
X99614478Y-151528412D01*
X99768955Y-151425193D01*
X99768958Y-151425191D01*
X99969143Y-151342272D01*
X100181658Y-151300000D01*
X100398342Y-151300000D01*
X100610857Y-151342272D01*
X100610857Y-151342272D01*
G37*
G36*
X98850000Y-153500000D02*
X96650000Y-153500000D01*
X96650000Y-151300000D01*
X98850000Y-151300000D01*
X98850000Y-153500000D01*
X98850000Y-153500000D01*
G37*
G36*
X94260857Y-151342272D02*
X94461042Y-151425191D01*
X94461045Y-151425193D01*
X94615523Y-151528412D01*
X94641213Y-151545578D01*
X94794422Y-151698787D01*
X94794424Y-151698790D01*
X94794425Y-151698791D01*
X94838634Y-151764955D01*
X94914809Y-151878958D01*
X94997728Y-152079143D01*
X95040000Y-152291658D01*
X95040000Y-152508342D01*
X94997728Y-152720857D01*
X94914809Y-152921042D01*
X94914807Y-152921045D01*
X94820312Y-153062467D01*
X94794422Y-153101213D01*
X94641213Y-153254422D01*
X94461042Y-153374809D01*
X94260857Y-153457728D01*
X94048342Y-153500000D01*
X93831658Y-153500000D01*
X93619143Y-153457728D01*
X93418958Y-153374809D01*
X93238787Y-153254422D01*
X93085578Y-153101213D01*
X93059689Y-153062467D01*
X92965193Y-152921045D01*
X92965191Y-152921042D01*
X92882272Y-152720857D01*
X92840000Y-152508342D01*
X92840000Y-152291658D01*
X92882272Y-152079143D01*
X92965191Y-151878958D01*
X93041366Y-151764955D01*
X93085575Y-151698791D01*
X93085576Y-151698790D01*
X93085578Y-151698787D01*
X93238787Y-151545578D01*
X93264478Y-151528412D01*
X93418955Y-151425193D01*
X93418958Y-151425191D01*
X93619143Y-151342272D01*
X93831658Y-151300000D01*
X94048342Y-151300000D01*
X94260857Y-151342272D01*
X94260857Y-151342272D01*
G37*
G36*
X86150000Y-153500000D02*
X83950000Y-153500000D01*
X83950000Y-151300000D01*
X86150000Y-151300000D01*
X86150000Y-153500000D01*
X86150000Y-153500000D01*
G37*
G36*
X87910857Y-151342272D02*
X88111042Y-151425191D01*
X88111045Y-151425193D01*
X88265523Y-151528412D01*
X88291213Y-151545578D01*
X88444422Y-151698787D01*
X88444424Y-151698790D01*
X88444425Y-151698791D01*
X88488634Y-151764955D01*
X88564809Y-151878958D01*
X88647728Y-152079143D01*
X88690000Y-152291658D01*
X88690000Y-152508342D01*
X88647728Y-152720857D01*
X88564809Y-152921042D01*
X88564807Y-152921045D01*
X88470312Y-153062467D01*
X88444422Y-153101213D01*
X88291213Y-153254422D01*
X88111042Y-153374809D01*
X87910857Y-153457728D01*
X87698342Y-153500000D01*
X87481658Y-153500000D01*
X87269143Y-153457728D01*
X87068958Y-153374809D01*
X86888787Y-153254422D01*
X86735578Y-153101213D01*
X86709689Y-153062467D01*
X86615193Y-152921045D01*
X86615191Y-152921042D01*
X86532272Y-152720857D01*
X86490000Y-152508342D01*
X86490000Y-152291658D01*
X86532272Y-152079143D01*
X86615191Y-151878958D01*
X86691366Y-151764955D01*
X86735575Y-151698791D01*
X86735576Y-151698790D01*
X86735578Y-151698787D01*
X86888787Y-151545578D01*
X86914478Y-151528412D01*
X87068955Y-151425193D01*
X87068958Y-151425191D01*
X87269143Y-151342272D01*
X87481658Y-151300000D01*
X87698342Y-151300000D01*
X87910857Y-151342272D01*
X87910857Y-151342272D01*
G37*
G36*
X81560857Y-151342272D02*
X81761042Y-151425191D01*
X81761045Y-151425193D01*
X81915523Y-151528412D01*
X81941213Y-151545578D01*
X82094422Y-151698787D01*
X82094424Y-151698790D01*
X82094425Y-151698791D01*
X82138634Y-151764955D01*
X82214809Y-151878958D01*
X82297728Y-152079143D01*
X82340000Y-152291658D01*
X82340000Y-152508342D01*
X82297728Y-152720857D01*
X82214809Y-152921042D01*
X82214807Y-152921045D01*
X82120312Y-153062467D01*
X82094422Y-153101213D01*
X81941213Y-153254422D01*
X81761042Y-153374809D01*
X81560857Y-153457728D01*
X81348342Y-153500000D01*
X81131658Y-153500000D01*
X80919143Y-153457728D01*
X80718958Y-153374809D01*
X80538787Y-153254422D01*
X80385578Y-153101213D01*
X80359689Y-153062467D01*
X80265193Y-152921045D01*
X80265191Y-152921042D01*
X80182272Y-152720857D01*
X80140000Y-152508342D01*
X80140000Y-152291658D01*
X80182272Y-152079143D01*
X80265191Y-151878958D01*
X80341366Y-151764955D01*
X80385575Y-151698791D01*
X80385576Y-151698790D01*
X80385578Y-151698787D01*
X80538787Y-151545578D01*
X80564478Y-151528412D01*
X80718955Y-151425193D01*
X80718958Y-151425191D01*
X80919143Y-151342272D01*
X81131658Y-151300000D01*
X81348342Y-151300000D01*
X81560857Y-151342272D01*
X81560857Y-151342272D01*
G37*
G36*
X70254958Y-151512906D02*
X70275935Y-151514972D01*
X70320240Y-151528412D01*
X70464339Y-151572124D01*
X70637974Y-151664933D01*
X70790166Y-151789834D01*
X70915067Y-151942026D01*
X71007876Y-152115661D01*
X71033460Y-152200000D01*
X71061265Y-152291659D01*
X71065028Y-152304066D01*
X71084326Y-152500000D01*
X71080011Y-152543806D01*
X71065028Y-152695935D01*
X71050740Y-152743035D01*
X71007876Y-152884339D01*
X70915067Y-153057974D01*
X70790166Y-153210166D01*
X70637974Y-153335067D01*
X70464339Y-153427876D01*
X70323035Y-153470740D01*
X70275935Y-153485028D01*
X70254958Y-153487094D01*
X70129100Y-153499490D01*
X70030900Y-153499490D01*
X69905042Y-153487094D01*
X69884065Y-153485028D01*
X69836965Y-153470740D01*
X69695661Y-153427876D01*
X69522026Y-153335067D01*
X69369834Y-153210166D01*
X69244933Y-153057974D01*
X69152124Y-152884339D01*
X69109260Y-152743035D01*
X69094972Y-152695935D01*
X69079989Y-152543806D01*
X69075674Y-152500000D01*
X69094972Y-152304066D01*
X69098736Y-152291659D01*
X69126540Y-152200000D01*
X69152124Y-152115661D01*
X69244933Y-151942026D01*
X69369834Y-151789834D01*
X69522026Y-151664933D01*
X69695661Y-151572124D01*
X69839760Y-151528412D01*
X69884065Y-151514972D01*
X69905042Y-151512906D01*
X70030900Y-151500510D01*
X70129100Y-151500510D01*
X70254958Y-151512906D01*
X70254958Y-151512906D01*
G37*
G36*
X52499490Y-153499490D02*
X50500510Y-153499490D01*
X50500510Y-151500510D01*
X52499490Y-151500510D01*
X52499490Y-153499490D01*
X52499490Y-153499490D01*
G37*
G36*
X59294958Y-151512906D02*
X59315935Y-151514972D01*
X59360240Y-151528412D01*
X59504339Y-151572124D01*
X59677974Y-151664933D01*
X59830166Y-151789834D01*
X59955067Y-151942026D01*
X60047876Y-152115661D01*
X60073460Y-152200000D01*
X60101265Y-152291659D01*
X60105028Y-152304066D01*
X60124326Y-152500000D01*
X60120011Y-152543806D01*
X60105028Y-152695935D01*
X60090740Y-152743035D01*
X60047876Y-152884339D01*
X59955067Y-153057974D01*
X59830166Y-153210166D01*
X59677974Y-153335067D01*
X59504339Y-153427876D01*
X59363035Y-153470740D01*
X59315935Y-153485028D01*
X59294958Y-153487094D01*
X59169100Y-153499490D01*
X59070900Y-153499490D01*
X58945042Y-153487094D01*
X58924065Y-153485028D01*
X58876965Y-153470740D01*
X58735661Y-153427876D01*
X58562026Y-153335067D01*
X58409834Y-153210166D01*
X58284933Y-153057974D01*
X58192124Y-152884339D01*
X58149260Y-152743035D01*
X58134972Y-152695935D01*
X58119989Y-152543806D01*
X58115674Y-152500000D01*
X58134972Y-152304066D01*
X58138736Y-152291659D01*
X58166540Y-152200000D01*
X58192124Y-152115661D01*
X58284933Y-151942026D01*
X58409834Y-151789834D01*
X58562026Y-151664933D01*
X58735661Y-151572124D01*
X58879760Y-151528412D01*
X58924065Y-151514972D01*
X58945042Y-151512906D01*
X59070900Y-151500510D01*
X59169100Y-151500510D01*
X59294958Y-151512906D01*
X59294958Y-151512906D01*
G37*
G36*
X75334958Y-151512906D02*
X75355935Y-151514972D01*
X75400240Y-151528412D01*
X75544339Y-151572124D01*
X75717974Y-151664933D01*
X75870166Y-151789834D01*
X75995067Y-151942026D01*
X76087876Y-152115661D01*
X76113460Y-152200000D01*
X76141265Y-152291659D01*
X76145028Y-152304066D01*
X76164326Y-152500000D01*
X76160011Y-152543806D01*
X76145028Y-152695935D01*
X76130740Y-152743035D01*
X76087876Y-152884339D01*
X75995067Y-153057974D01*
X75870166Y-153210166D01*
X75717974Y-153335067D01*
X75544339Y-153427876D01*
X75403035Y-153470740D01*
X75355935Y-153485028D01*
X75334958Y-153487094D01*
X75209100Y-153499490D01*
X75110900Y-153499490D01*
X74985042Y-153487094D01*
X74964065Y-153485028D01*
X74916965Y-153470740D01*
X74775661Y-153427876D01*
X74602026Y-153335067D01*
X74449834Y-153210166D01*
X74324933Y-153057974D01*
X74232124Y-152884339D01*
X74189260Y-152743035D01*
X74174972Y-152695935D01*
X74159989Y-152543806D01*
X74155674Y-152500000D01*
X74174972Y-152304066D01*
X74178736Y-152291659D01*
X74206540Y-152200000D01*
X74232124Y-152115661D01*
X74324933Y-151942026D01*
X74449834Y-151789834D01*
X74602026Y-151664933D01*
X74775661Y-151572124D01*
X74919760Y-151528412D01*
X74964065Y-151514972D01*
X74985042Y-151512906D01*
X75110900Y-151500510D01*
X75209100Y-151500510D01*
X75334958Y-151512906D01*
X75334958Y-151512906D01*
G37*
G36*
X67714958Y-151512906D02*
X67735935Y-151514972D01*
X67780240Y-151528412D01*
X67924339Y-151572124D01*
X68097974Y-151664933D01*
X68250166Y-151789834D01*
X68375067Y-151942026D01*
X68467876Y-152115661D01*
X68493460Y-152200000D01*
X68521265Y-152291659D01*
X68525028Y-152304066D01*
X68544326Y-152500000D01*
X68540011Y-152543806D01*
X68525028Y-152695935D01*
X68510740Y-152743035D01*
X68467876Y-152884339D01*
X68375067Y-153057974D01*
X68250166Y-153210166D01*
X68097974Y-153335067D01*
X67924339Y-153427876D01*
X67783035Y-153470740D01*
X67735935Y-153485028D01*
X67714958Y-153487094D01*
X67589100Y-153499490D01*
X67490900Y-153499490D01*
X67365042Y-153487094D01*
X67344065Y-153485028D01*
X67296965Y-153470740D01*
X67155661Y-153427876D01*
X66982026Y-153335067D01*
X66829834Y-153210166D01*
X66704933Y-153057974D01*
X66612124Y-152884339D01*
X66569260Y-152743035D01*
X66554972Y-152695935D01*
X66539989Y-152543806D01*
X66535674Y-152500000D01*
X66554972Y-152304066D01*
X66558736Y-152291659D01*
X66586540Y-152200000D01*
X66612124Y-152115661D01*
X66704933Y-151942026D01*
X66829834Y-151789834D01*
X66982026Y-151664933D01*
X67155661Y-151572124D01*
X67299760Y-151528412D01*
X67344065Y-151514972D01*
X67365042Y-151512906D01*
X67490900Y-151500510D01*
X67589100Y-151500510D01*
X67714958Y-151512906D01*
X67714958Y-151512906D01*
G37*
G36*
X72794958Y-151512906D02*
X72815935Y-151514972D01*
X72860240Y-151528412D01*
X73004339Y-151572124D01*
X73177974Y-151664933D01*
X73330166Y-151789834D01*
X73455067Y-151942026D01*
X73547876Y-152115661D01*
X73573460Y-152200000D01*
X73601265Y-152291659D01*
X73605028Y-152304066D01*
X73624326Y-152500000D01*
X73620011Y-152543806D01*
X73605028Y-152695935D01*
X73590740Y-152743035D01*
X73547876Y-152884339D01*
X73455067Y-153057974D01*
X73330166Y-153210166D01*
X73177974Y-153335067D01*
X73004339Y-153427876D01*
X72863035Y-153470740D01*
X72815935Y-153485028D01*
X72794958Y-153487094D01*
X72669100Y-153499490D01*
X72570900Y-153499490D01*
X72445042Y-153487094D01*
X72424065Y-153485028D01*
X72376965Y-153470740D01*
X72235661Y-153427876D01*
X72062026Y-153335067D01*
X71909834Y-153210166D01*
X71784933Y-153057974D01*
X71692124Y-152884339D01*
X71649260Y-152743035D01*
X71634972Y-152695935D01*
X71619989Y-152543806D01*
X71615674Y-152500000D01*
X71634972Y-152304066D01*
X71638736Y-152291659D01*
X71666540Y-152200000D01*
X71692124Y-152115661D01*
X71784933Y-151942026D01*
X71909834Y-151789834D01*
X72062026Y-151664933D01*
X72235661Y-151572124D01*
X72379760Y-151528412D01*
X72424065Y-151514972D01*
X72445042Y-151512906D01*
X72570900Y-151500510D01*
X72669100Y-151500510D01*
X72794958Y-151512906D01*
X72794958Y-151512906D01*
G37*
G36*
X65999490Y-153499490D02*
X64000510Y-153499490D01*
X64000510Y-151500510D01*
X65999490Y-151500510D01*
X65999490Y-153499490D01*
X65999490Y-153499490D01*
G37*
G36*
X61834958Y-151512906D02*
X61855935Y-151514972D01*
X61900240Y-151528412D01*
X62044339Y-151572124D01*
X62217974Y-151664933D01*
X62370166Y-151789834D01*
X62495067Y-151942026D01*
X62587876Y-152115661D01*
X62613460Y-152200000D01*
X62641265Y-152291659D01*
X62645028Y-152304066D01*
X62664326Y-152500000D01*
X62660011Y-152543806D01*
X62645028Y-152695935D01*
X62630740Y-152743035D01*
X62587876Y-152884339D01*
X62495067Y-153057974D01*
X62370166Y-153210166D01*
X62217974Y-153335067D01*
X62044339Y-153427876D01*
X61903035Y-153470740D01*
X61855935Y-153485028D01*
X61834958Y-153487094D01*
X61709100Y-153499490D01*
X61610900Y-153499490D01*
X61485042Y-153487094D01*
X61464065Y-153485028D01*
X61416965Y-153470740D01*
X61275661Y-153427876D01*
X61102026Y-153335067D01*
X60949834Y-153210166D01*
X60824933Y-153057974D01*
X60732124Y-152884339D01*
X60689260Y-152743035D01*
X60674972Y-152695935D01*
X60659989Y-152543806D01*
X60655674Y-152500000D01*
X60674972Y-152304066D01*
X60678736Y-152291659D01*
X60706540Y-152200000D01*
X60732124Y-152115661D01*
X60824933Y-151942026D01*
X60949834Y-151789834D01*
X61102026Y-151664933D01*
X61275661Y-151572124D01*
X61419760Y-151528412D01*
X61464065Y-151514972D01*
X61485042Y-151512906D01*
X61610900Y-151500510D01*
X61709100Y-151500510D01*
X61834958Y-151512906D01*
X61834958Y-151512906D01*
G37*
G36*
X56754958Y-151512906D02*
X56775935Y-151514972D01*
X56820240Y-151528412D01*
X56964339Y-151572124D01*
X57137974Y-151664933D01*
X57290166Y-151789834D01*
X57415067Y-151942026D01*
X57507876Y-152115661D01*
X57533460Y-152200000D01*
X57561265Y-152291659D01*
X57565028Y-152304066D01*
X57584326Y-152500000D01*
X57580011Y-152543806D01*
X57565028Y-152695935D01*
X57550740Y-152743035D01*
X57507876Y-152884339D01*
X57415067Y-153057974D01*
X57290166Y-153210166D01*
X57137974Y-153335067D01*
X56964339Y-153427876D01*
X56823035Y-153470740D01*
X56775935Y-153485028D01*
X56754958Y-153487094D01*
X56629100Y-153499490D01*
X56530900Y-153499490D01*
X56405042Y-153487094D01*
X56384065Y-153485028D01*
X56336965Y-153470740D01*
X56195661Y-153427876D01*
X56022026Y-153335067D01*
X55869834Y-153210166D01*
X55744933Y-153057974D01*
X55652124Y-152884339D01*
X55609260Y-152743035D01*
X55594972Y-152695935D01*
X55579989Y-152543806D01*
X55575674Y-152500000D01*
X55594972Y-152304066D01*
X55598736Y-152291659D01*
X55626540Y-152200000D01*
X55652124Y-152115661D01*
X55744933Y-151942026D01*
X55869834Y-151789834D01*
X56022026Y-151664933D01*
X56195661Y-151572124D01*
X56339760Y-151528412D01*
X56384065Y-151514972D01*
X56405042Y-151512906D01*
X56530900Y-151500510D01*
X56629100Y-151500510D01*
X56754958Y-151512906D01*
X56754958Y-151512906D01*
G37*
G36*
X54214958Y-151512906D02*
X54235935Y-151514972D01*
X54280240Y-151528412D01*
X54424339Y-151572124D01*
X54597974Y-151664933D01*
X54750166Y-151789834D01*
X54875067Y-151942026D01*
X54967876Y-152115661D01*
X54993460Y-152200000D01*
X55021265Y-152291659D01*
X55025028Y-152304066D01*
X55044326Y-152500000D01*
X55040011Y-152543806D01*
X55025028Y-152695935D01*
X55010740Y-152743035D01*
X54967876Y-152884339D01*
X54875067Y-153057974D01*
X54750166Y-153210166D01*
X54597974Y-153335067D01*
X54424339Y-153427876D01*
X54283035Y-153470740D01*
X54235935Y-153485028D01*
X54214958Y-153487094D01*
X54089100Y-153499490D01*
X53990900Y-153499490D01*
X53865042Y-153487094D01*
X53844065Y-153485028D01*
X53796965Y-153470740D01*
X53655661Y-153427876D01*
X53482026Y-153335067D01*
X53329834Y-153210166D01*
X53204933Y-153057974D01*
X53112124Y-152884339D01*
X53069260Y-152743035D01*
X53054972Y-152695935D01*
X53039989Y-152543806D01*
X53035674Y-152500000D01*
X53054972Y-152304066D01*
X53058736Y-152291659D01*
X53086540Y-152200000D01*
X53112124Y-152115661D01*
X53204933Y-151942026D01*
X53329834Y-151789834D01*
X53482026Y-151664933D01*
X53655661Y-151572124D01*
X53799760Y-151528412D01*
X53844065Y-151514972D01*
X53865042Y-151512906D01*
X53990900Y-151500510D01*
X54089100Y-151500510D01*
X54214958Y-151512906D01*
X54214958Y-151512906D01*
G37*
G36*
X121850026Y-149846115D02*
X122068412Y-149936573D01*
X122264958Y-150067901D01*
X122432099Y-150235042D01*
X122563427Y-150431588D01*
X122653885Y-150649974D01*
X122700000Y-150881809D01*
X122700000Y-151118191D01*
X122653885Y-151350026D01*
X122563427Y-151568412D01*
X122432099Y-151764958D01*
X122264958Y-151932099D01*
X122068412Y-152063427D01*
X121850026Y-152153885D01*
X121618191Y-152200000D01*
X121381809Y-152200000D01*
X121149974Y-152153885D01*
X120931588Y-152063427D01*
X120735042Y-151932099D01*
X120567901Y-151764958D01*
X120436573Y-151568412D01*
X120346115Y-151350026D01*
X120300000Y-151118191D01*
X120300000Y-150881809D01*
X120346115Y-150649974D01*
X120436573Y-150431588D01*
X120567901Y-150235042D01*
X120735042Y-150067901D01*
X120931588Y-149936573D01*
X121149974Y-149846115D01*
X121381809Y-149800000D01*
X121618191Y-149800000D01*
X121850026Y-149846115D01*
X121850026Y-149846115D01*
G37*
G36*
X118350026Y-149846115D02*
X118568412Y-149936573D01*
X118764958Y-150067901D01*
X118932099Y-150235042D01*
X119063427Y-150431588D01*
X119153885Y-150649974D01*
X119200000Y-150881809D01*
X119200000Y-151118191D01*
X119153885Y-151350026D01*
X119063427Y-151568412D01*
X118932099Y-151764958D01*
X118764958Y-151932099D01*
X118568412Y-152063427D01*
X118350026Y-152153885D01*
X118118191Y-152200000D01*
X117881809Y-152200000D01*
X117649974Y-152153885D01*
X117431588Y-152063427D01*
X117235042Y-151932099D01*
X117067901Y-151764958D01*
X116936573Y-151568412D01*
X116846115Y-151350026D01*
X116800000Y-151118191D01*
X116800000Y-150881809D01*
X116846115Y-150649974D01*
X116936573Y-150431588D01*
X117067901Y-150235042D01*
X117235042Y-150067901D01*
X117431588Y-149936573D01*
X117649974Y-149846115D01*
X117881809Y-149800000D01*
X118118191Y-149800000D01*
X118350026Y-149846115D01*
X118350026Y-149846115D01*
G37*
G36*
X114850026Y-149846115D02*
X115068412Y-149936573D01*
X115264958Y-150067901D01*
X115432099Y-150235042D01*
X115563427Y-150431588D01*
X115653885Y-150649974D01*
X115700000Y-150881809D01*
X115700000Y-151118191D01*
X115653885Y-151350026D01*
X115563427Y-151568412D01*
X115432099Y-151764958D01*
X115264958Y-151932099D01*
X115068412Y-152063427D01*
X114850026Y-152153885D01*
X114618191Y-152200000D01*
X114381809Y-152200000D01*
X114149974Y-152153885D01*
X113931588Y-152063427D01*
X113735042Y-151932099D01*
X113567901Y-151764958D01*
X113436573Y-151568412D01*
X113346115Y-151350026D01*
X113300000Y-151118191D01*
X113300000Y-150881809D01*
X113346115Y-150649974D01*
X113436573Y-150431588D01*
X113567901Y-150235042D01*
X113735042Y-150067901D01*
X113931588Y-149936573D01*
X114149974Y-149846115D01*
X114381809Y-149800000D01*
X114618191Y-149800000D01*
X114850026Y-149846115D01*
X114850026Y-149846115D01*
G37*
G36*
X112200000Y-152200000D02*
X109800000Y-152200000D01*
X109800000Y-149800000D01*
X112200000Y-149800000D01*
X112200000Y-152200000D01*
X112200000Y-152200000D01*
G37*
G36*
X170660026Y-149806115D02*
X170878412Y-149896573D01*
X171074958Y-150027901D01*
X171242099Y-150195042D01*
X171373427Y-150391588D01*
X171463885Y-150609974D01*
X171510000Y-150841809D01*
X171510000Y-151078191D01*
X171463885Y-151310026D01*
X171373427Y-151528412D01*
X171242099Y-151724958D01*
X171074958Y-151892099D01*
X170878412Y-152023427D01*
X170660026Y-152113885D01*
X170428191Y-152160000D01*
X170191809Y-152160000D01*
X169959974Y-152113885D01*
X169741588Y-152023427D01*
X169545042Y-151892099D01*
X169377901Y-151724958D01*
X169246573Y-151528412D01*
X169156115Y-151310026D01*
X169110000Y-151078191D01*
X169110000Y-150841809D01*
X169156115Y-150609974D01*
X169246573Y-150391588D01*
X169377901Y-150195042D01*
X169545042Y-150027901D01*
X169741588Y-149896573D01*
X169959974Y-149806115D01*
X170191809Y-149760000D01*
X170428191Y-149760000D01*
X170660026Y-149806115D01*
X170660026Y-149806115D01*
G37*
G36*
X167160026Y-149806115D02*
X167378412Y-149896573D01*
X167574958Y-150027901D01*
X167742099Y-150195042D01*
X167873427Y-150391588D01*
X167963885Y-150609974D01*
X168010000Y-150841809D01*
X168010000Y-151078191D01*
X167963885Y-151310026D01*
X167873427Y-151528412D01*
X167742099Y-151724958D01*
X167574958Y-151892099D01*
X167378412Y-152023427D01*
X167160026Y-152113885D01*
X166928191Y-152160000D01*
X166691809Y-152160000D01*
X166459974Y-152113885D01*
X166241588Y-152023427D01*
X166045042Y-151892099D01*
X165877901Y-151724958D01*
X165746573Y-151528412D01*
X165656115Y-151310026D01*
X165610000Y-151078191D01*
X165610000Y-150841809D01*
X165656115Y-150609974D01*
X165746573Y-150391588D01*
X165877901Y-150195042D01*
X166045042Y-150027901D01*
X166241588Y-149896573D01*
X166459974Y-149806115D01*
X166691809Y-149760000D01*
X166928191Y-149760000D01*
X167160026Y-149806115D01*
X167160026Y-149806115D01*
G37*
G36*
X163660026Y-149806115D02*
X163878412Y-149896573D01*
X164074958Y-150027901D01*
X164242099Y-150195042D01*
X164373427Y-150391588D01*
X164463885Y-150609974D01*
X164510000Y-150841809D01*
X164510000Y-151078191D01*
X164463885Y-151310026D01*
X164373427Y-151528412D01*
X164242099Y-151724958D01*
X164074958Y-151892099D01*
X163878412Y-152023427D01*
X163660026Y-152113885D01*
X163428191Y-152160000D01*
X163191809Y-152160000D01*
X162959974Y-152113885D01*
X162741588Y-152023427D01*
X162545042Y-151892099D01*
X162377901Y-151724958D01*
X162246573Y-151528412D01*
X162156115Y-151310026D01*
X162110000Y-151078191D01*
X162110000Y-150841809D01*
X162156115Y-150609974D01*
X162246573Y-150391588D01*
X162377901Y-150195042D01*
X162545042Y-150027901D01*
X162741588Y-149896573D01*
X162959974Y-149806115D01*
X163191809Y-149760000D01*
X163428191Y-149760000D01*
X163660026Y-149806115D01*
X163660026Y-149806115D01*
G37*
G36*
X161010000Y-152160000D02*
X158610000Y-152160000D01*
X158610000Y-149760000D01*
X161010000Y-149760000D01*
X161010000Y-152160000D01*
X161010000Y-152160000D01*
G37*
G36*
X47790000Y-146850000D02*
X46190000Y-146850000D01*
X46190000Y-145250000D01*
X47790000Y-145250000D01*
X47790000Y-146850000D01*
X47790000Y-146850000D01*
G37*
G36*
X44383352Y-143895743D02*
X44528941Y-143956048D01*
X44659973Y-144043601D01*
X44771399Y-144155027D01*
X44858952Y-144286059D01*
X44919257Y-144431648D01*
X44950000Y-144586205D01*
X44950000Y-144743795D01*
X44919257Y-144898352D01*
X44858952Y-145043941D01*
X44771399Y-145174973D01*
X44659973Y-145286399D01*
X44528941Y-145373952D01*
X44383352Y-145434257D01*
X44228795Y-145465000D01*
X44071205Y-145465000D01*
X43916648Y-145434257D01*
X43771059Y-145373952D01*
X43640027Y-145286399D01*
X43528601Y-145174973D01*
X43441048Y-145043941D01*
X43380743Y-144898352D01*
X43350000Y-144743795D01*
X43350000Y-144586205D01*
X43380743Y-144431648D01*
X43441048Y-144286059D01*
X43528601Y-144155027D01*
X43640027Y-144043601D01*
X43771059Y-143956048D01*
X43916648Y-143895743D01*
X44071205Y-143865000D01*
X44228795Y-143865000D01*
X44383352Y-143895743D01*
X44383352Y-143895743D01*
G37*
G36*
X47223352Y-142510743D02*
X47368941Y-142571048D01*
X47499973Y-142658601D01*
X47611399Y-142770027D01*
X47698952Y-142901059D01*
X47759257Y-143046648D01*
X47790000Y-143201205D01*
X47790000Y-143358795D01*
X47759257Y-143513352D01*
X47698952Y-143658941D01*
X47611399Y-143789973D01*
X47499973Y-143901399D01*
X47368941Y-143988952D01*
X47223352Y-144049257D01*
X47068795Y-144080000D01*
X46911205Y-144080000D01*
X46756648Y-144049257D01*
X46611059Y-143988952D01*
X46480027Y-143901399D01*
X46368601Y-143789973D01*
X46281048Y-143658941D01*
X46220743Y-143513352D01*
X46190000Y-143358795D01*
X46190000Y-143201205D01*
X46220743Y-143046648D01*
X46281048Y-142901059D01*
X46368601Y-142770027D01*
X46480027Y-142658601D01*
X46611059Y-142571048D01*
X46756648Y-142510743D01*
X46911205Y-142480000D01*
X47068795Y-142480000D01*
X47223352Y-142510743D01*
X47223352Y-142510743D01*
G37*
G36*
X44383352Y-141125743D02*
X44528941Y-141186048D01*
X44659973Y-141273601D01*
X44771399Y-141385027D01*
X44858952Y-141516059D01*
X44919257Y-141661648D01*
X44950000Y-141816205D01*
X44950000Y-141973795D01*
X44919257Y-142128352D01*
X44858952Y-142273941D01*
X44771399Y-142404973D01*
X44659973Y-142516399D01*
X44528941Y-142603952D01*
X44383352Y-142664257D01*
X44228795Y-142695000D01*
X44071205Y-142695000D01*
X43916648Y-142664257D01*
X43771059Y-142603952D01*
X43640027Y-142516399D01*
X43528601Y-142404973D01*
X43441048Y-142273941D01*
X43380743Y-142128352D01*
X43350000Y-141973795D01*
X43350000Y-141816205D01*
X43380743Y-141661648D01*
X43441048Y-141516059D01*
X43528601Y-141385027D01*
X43640027Y-141273601D01*
X43771059Y-141186048D01*
X43916648Y-141125743D01*
X44071205Y-141095000D01*
X44228795Y-141095000D01*
X44383352Y-141125743D01*
X44383352Y-141125743D01*
G37*
G36*
X47223352Y-139740743D02*
X47368941Y-139801048D01*
X47499973Y-139888601D01*
X47611399Y-140000027D01*
X47698952Y-140131059D01*
X47759257Y-140276648D01*
X47790000Y-140431205D01*
X47790000Y-140588795D01*
X47759257Y-140743352D01*
X47698952Y-140888941D01*
X47611399Y-141019973D01*
X47499973Y-141131399D01*
X47368941Y-141218952D01*
X47223352Y-141279257D01*
X47068795Y-141310000D01*
X46911205Y-141310000D01*
X46756648Y-141279257D01*
X46611059Y-141218952D01*
X46480027Y-141131399D01*
X46368601Y-141019973D01*
X46281048Y-140888941D01*
X46220743Y-140743352D01*
X46190000Y-140588795D01*
X46190000Y-140431205D01*
X46220743Y-140276648D01*
X46281048Y-140131059D01*
X46368601Y-140000027D01*
X46480027Y-139888601D01*
X46611059Y-139801048D01*
X46756648Y-139740743D01*
X46911205Y-139710000D01*
X47068795Y-139710000D01*
X47223352Y-139740743D01*
X47223352Y-139740743D01*
G37*
G36*
X44383352Y-138355743D02*
X44528941Y-138416048D01*
X44659973Y-138503601D01*
X44771399Y-138615027D01*
X44858952Y-138746059D01*
X44919257Y-138891648D01*
X44950000Y-139046205D01*
X44950000Y-139203795D01*
X44919257Y-139358352D01*
X44858952Y-139503941D01*
X44771399Y-139634973D01*
X44659973Y-139746399D01*
X44528941Y-139833952D01*
X44383352Y-139894257D01*
X44228795Y-139925000D01*
X44071205Y-139925000D01*
X43916648Y-139894257D01*
X43771059Y-139833952D01*
X43640027Y-139746399D01*
X43528601Y-139634973D01*
X43441048Y-139503941D01*
X43380743Y-139358352D01*
X43350000Y-139203795D01*
X43350000Y-139046205D01*
X43380743Y-138891648D01*
X43441048Y-138746059D01*
X43528601Y-138615027D01*
X43640027Y-138503601D01*
X43771059Y-138416048D01*
X43916648Y-138355743D01*
X44071205Y-138325000D01*
X44228795Y-138325000D01*
X44383352Y-138355743D01*
X44383352Y-138355743D01*
G37*
G36*
X47223352Y-136970743D02*
X47368941Y-137031048D01*
X47499973Y-137118601D01*
X47611399Y-137230027D01*
X47698952Y-137361059D01*
X47759257Y-137506648D01*
X47790000Y-137661205D01*
X47790000Y-137818795D01*
X47759257Y-137973352D01*
X47698952Y-138118941D01*
X47611399Y-138249973D01*
X47499973Y-138361399D01*
X47368941Y-138448952D01*
X47223352Y-138509257D01*
X47068795Y-138540000D01*
X46911205Y-138540000D01*
X46756648Y-138509257D01*
X46611059Y-138448952D01*
X46480027Y-138361399D01*
X46368601Y-138249973D01*
X46281048Y-138118941D01*
X46220743Y-137973352D01*
X46190000Y-137818795D01*
X46190000Y-137661205D01*
X46220743Y-137506648D01*
X46281048Y-137361059D01*
X46368601Y-137230027D01*
X46480027Y-137118601D01*
X46611059Y-137031048D01*
X46756648Y-136970743D01*
X46911205Y-136940000D01*
X47068795Y-136940000D01*
X47223352Y-136970743D01*
X47223352Y-136970743D01*
G37*
G36*
X72466630Y-135602299D02*
X72626855Y-135650903D01*
X72774520Y-135729831D01*
X72903949Y-135836051D01*
X73010169Y-135965480D01*
X73089097Y-136113145D01*
X73137701Y-136273370D01*
X73154112Y-136440000D01*
X73137701Y-136606630D01*
X73089097Y-136766855D01*
X73010169Y-136914520D01*
X72903949Y-137043949D01*
X72774520Y-137150169D01*
X72626855Y-137229097D01*
X72466630Y-137277701D01*
X72341752Y-137290000D01*
X72258248Y-137290000D01*
X72133370Y-137277701D01*
X71973145Y-137229097D01*
X71825480Y-137150169D01*
X71696051Y-137043949D01*
X71589831Y-136914520D01*
X71510903Y-136766855D01*
X71462299Y-136606630D01*
X71445888Y-136440000D01*
X71462299Y-136273370D01*
X71510903Y-136113145D01*
X71589831Y-135965480D01*
X71696051Y-135836051D01*
X71825480Y-135729831D01*
X71973145Y-135650903D01*
X72133370Y-135602299D01*
X72258248Y-135590000D01*
X72341752Y-135590000D01*
X72466630Y-135602299D01*
X72466630Y-135602299D01*
G37*
G36*
X44383352Y-135585743D02*
X44528941Y-135646048D01*
X44659973Y-135733601D01*
X44771399Y-135845027D01*
X44858952Y-135976059D01*
X44919257Y-136121648D01*
X44950000Y-136276205D01*
X44950000Y-136433795D01*
X44919257Y-136588352D01*
X44858952Y-136733941D01*
X44771399Y-136864973D01*
X44659973Y-136976399D01*
X44528941Y-137063952D01*
X44383352Y-137124257D01*
X44228795Y-137155000D01*
X44071205Y-137155000D01*
X43916648Y-137124257D01*
X43771059Y-137063952D01*
X43640027Y-136976399D01*
X43528601Y-136864973D01*
X43441048Y-136733941D01*
X43380743Y-136588352D01*
X43350000Y-136433795D01*
X43350000Y-136276205D01*
X43380743Y-136121648D01*
X43441048Y-135976059D01*
X43528601Y-135845027D01*
X43640027Y-135733601D01*
X43771059Y-135646048D01*
X43916648Y-135585743D01*
X44071205Y-135555000D01*
X44228795Y-135555000D01*
X44383352Y-135585743D01*
X44383352Y-135585743D01*
G37*
G36*
X47223352Y-134200743D02*
X47368941Y-134261048D01*
X47499973Y-134348601D01*
X47611399Y-134460027D01*
X47698952Y-134591059D01*
X47759257Y-134736648D01*
X47790000Y-134891205D01*
X47790000Y-135048795D01*
X47759257Y-135203352D01*
X47698952Y-135348941D01*
X47611399Y-135479973D01*
X47499973Y-135591399D01*
X47368941Y-135678952D01*
X47223352Y-135739257D01*
X47068795Y-135770000D01*
X46911205Y-135770000D01*
X46756648Y-135739257D01*
X46611059Y-135678952D01*
X46480027Y-135591399D01*
X46368601Y-135479973D01*
X46281048Y-135348941D01*
X46220743Y-135203352D01*
X46190000Y-135048795D01*
X46190000Y-134891205D01*
X46220743Y-134736648D01*
X46281048Y-134591059D01*
X46368601Y-134460027D01*
X46480027Y-134348601D01*
X46611059Y-134261048D01*
X46756648Y-134200743D01*
X46911205Y-134170000D01*
X47068795Y-134170000D01*
X47223352Y-134200743D01*
X47223352Y-134200743D01*
G37*
G36*
X53084990Y-133807699D02*
X53245215Y-133856303D01*
X53392880Y-133935231D01*
X53522309Y-134041451D01*
X53628529Y-134170880D01*
X53707457Y-134318545D01*
X53756061Y-134478770D01*
X53772472Y-134645400D01*
X53756061Y-134812030D01*
X53707457Y-134972255D01*
X53628529Y-135119920D01*
X53522309Y-135249349D01*
X53392880Y-135355569D01*
X53245215Y-135434497D01*
X53084990Y-135483101D01*
X52960112Y-135495400D01*
X52876608Y-135495400D01*
X52751730Y-135483101D01*
X52591505Y-135434497D01*
X52443840Y-135355569D01*
X52314411Y-135249349D01*
X52208191Y-135119920D01*
X52129263Y-134972255D01*
X52080659Y-134812030D01*
X52064248Y-134645400D01*
X52080659Y-134478770D01*
X52129263Y-134318545D01*
X52208191Y-134170880D01*
X52314411Y-134041451D01*
X52443840Y-133935231D01*
X52591505Y-133856303D01*
X52751730Y-133807699D01*
X52876608Y-133795400D01*
X52960112Y-133795400D01*
X53084990Y-133807699D01*
X53084990Y-133807699D01*
G37*
G36*
X73150000Y-134750000D02*
X71450000Y-134750000D01*
X71450000Y-133050000D01*
X73150000Y-133050000D01*
X73150000Y-134750000D01*
X73150000Y-134750000D01*
G37*
G36*
X53768360Y-132955400D02*
X52068360Y-132955400D01*
X52068360Y-131255400D01*
X53768360Y-131255400D01*
X53768360Y-132955400D01*
X53768360Y-132955400D01*
G37*
G36*
X47273378Y-126086859D02*
X47637354Y-126237622D01*
X47964929Y-126456501D01*
X48243499Y-126735071D01*
X48462378Y-127062646D01*
X48613141Y-127426622D01*
X48690000Y-127813016D01*
X48690000Y-128206984D01*
X48613141Y-128593378D01*
X48462378Y-128957354D01*
X48243499Y-129284929D01*
X47964929Y-129563499D01*
X47637354Y-129782378D01*
X47273378Y-129933141D01*
X46886984Y-130010000D01*
X46493016Y-130010000D01*
X46106622Y-129933141D01*
X45742646Y-129782378D01*
X45415071Y-129563499D01*
X45136501Y-129284929D01*
X44917622Y-128957354D01*
X44766859Y-128593378D01*
X44690000Y-128206984D01*
X44690000Y-127813016D01*
X44766859Y-127426622D01*
X44917622Y-127062646D01*
X45136501Y-126735071D01*
X45415071Y-126456501D01*
X45742646Y-126237622D01*
X46106622Y-126086859D01*
X46493016Y-126010000D01*
X46886984Y-126010000D01*
X47273378Y-126086859D01*
X47273378Y-126086859D01*
G37*
G36*
X62833518Y-128248811D02*
X62905967Y-128263222D01*
X62962503Y-128286640D01*
X63042457Y-128319758D01*
X63165300Y-128401839D01*
X63269761Y-128506300D01*
X63351842Y-128629143D01*
X63408378Y-128765634D01*
X63437200Y-128910530D01*
X63437200Y-129058270D01*
X63408378Y-129203166D01*
X63351842Y-129339657D01*
X63269761Y-129462500D01*
X63165300Y-129566961D01*
X63042457Y-129649042D01*
X62962503Y-129682160D01*
X62905967Y-129705578D01*
X62833518Y-129719989D01*
X62761070Y-129734400D01*
X62613330Y-129734400D01*
X62540882Y-129719989D01*
X62468433Y-129705578D01*
X62411897Y-129682160D01*
X62331943Y-129649042D01*
X62209100Y-129566961D01*
X62104639Y-129462500D01*
X62022558Y-129339657D01*
X61966022Y-129203166D01*
X61937200Y-129058270D01*
X61937200Y-128910530D01*
X61966022Y-128765634D01*
X62022558Y-128629143D01*
X62104639Y-128506300D01*
X62209100Y-128401839D01*
X62331943Y-128319758D01*
X62411897Y-128286640D01*
X62468433Y-128263222D01*
X62540882Y-128248811D01*
X62613330Y-128234400D01*
X62761070Y-128234400D01*
X62833518Y-128248811D01*
X62833518Y-128248811D01*
G37*
G36*
X53340935Y-125538429D02*
X53437534Y-125557644D01*
X53710517Y-125670717D01*
X53952920Y-125832687D01*
X53956197Y-125834876D01*
X54165124Y-126043803D01*
X54165126Y-126043806D01*
X54329283Y-126289483D01*
X54442356Y-126562466D01*
X54500000Y-126852263D01*
X54500000Y-127147737D01*
X54444527Y-127426622D01*
X54442356Y-127437533D01*
X54329284Y-127710515D01*
X54165124Y-127956197D01*
X53956197Y-128165124D01*
X53956194Y-128165126D01*
X53710517Y-128329283D01*
X53437534Y-128442356D01*
X53340935Y-128461571D01*
X53147739Y-128500000D01*
X52852261Y-128500000D01*
X52659065Y-128461571D01*
X52562466Y-128442356D01*
X52289483Y-128329283D01*
X52043806Y-128165126D01*
X52043803Y-128165124D01*
X51834876Y-127956197D01*
X51670716Y-127710515D01*
X51557644Y-127437533D01*
X51555474Y-127426622D01*
X51500000Y-127147737D01*
X51500000Y-126852263D01*
X51557644Y-126562466D01*
X51670717Y-126289483D01*
X51834874Y-126043806D01*
X51834876Y-126043803D01*
X52043803Y-125834876D01*
X52047080Y-125832687D01*
X52289483Y-125670717D01*
X52562466Y-125557644D01*
X52659065Y-125538429D01*
X52852261Y-125500000D01*
X53147739Y-125500000D01*
X53340935Y-125538429D01*
X53340935Y-125538429D01*
G37*
G36*
X62833518Y-123368811D02*
X62905967Y-123383222D01*
X62962503Y-123406640D01*
X63042457Y-123439758D01*
X63165300Y-123521839D01*
X63269761Y-123626300D01*
X63351842Y-123749143D01*
X63408378Y-123885634D01*
X63437200Y-124030530D01*
X63437200Y-124178270D01*
X63408378Y-124323166D01*
X63351842Y-124459657D01*
X63269761Y-124582500D01*
X63165300Y-124686961D01*
X63042457Y-124769042D01*
X62962503Y-124802160D01*
X62905967Y-124825578D01*
X62833518Y-124839989D01*
X62761070Y-124854400D01*
X62613330Y-124854400D01*
X62540882Y-124839989D01*
X62468433Y-124825578D01*
X62411897Y-124802160D01*
X62331943Y-124769042D01*
X62209100Y-124686961D01*
X62104639Y-124582500D01*
X62022558Y-124459657D01*
X61966022Y-124323166D01*
X61937200Y-124178270D01*
X61937200Y-124030530D01*
X61966022Y-123885634D01*
X62022558Y-123749143D01*
X62104639Y-123626300D01*
X62209100Y-123521839D01*
X62331943Y-123439758D01*
X62411897Y-123406640D01*
X62468433Y-123383222D01*
X62540882Y-123368811D01*
X62613330Y-123354400D01*
X62761070Y-123354400D01*
X62833518Y-123368811D01*
X62833518Y-123368811D01*
G37*
G36*
X39930121Y-121608682D02*
X40043221Y-121642990D01*
X40147455Y-121698704D01*
X40238817Y-121773683D01*
X40313796Y-121865045D01*
X40369510Y-121969279D01*
X40403818Y-122082379D01*
X40415403Y-122200000D01*
X40403818Y-122317621D01*
X40369510Y-122430721D01*
X40313796Y-122534955D01*
X40238817Y-122626317D01*
X40147455Y-122701296D01*
X40043221Y-122757010D01*
X39930121Y-122791318D01*
X39841974Y-122800000D01*
X39083026Y-122800000D01*
X38994879Y-122791318D01*
X38881779Y-122757010D01*
X38777545Y-122701296D01*
X38686183Y-122626317D01*
X38611204Y-122534955D01*
X38555490Y-122430721D01*
X38521182Y-122317621D01*
X38509597Y-122200000D01*
X38521182Y-122082379D01*
X38555490Y-121969279D01*
X38611204Y-121865045D01*
X38686183Y-121773683D01*
X38777545Y-121698704D01*
X38881779Y-121642990D01*
X38994879Y-121608682D01*
X39083026Y-121600000D01*
X39841974Y-121600000D01*
X39930121Y-121608682D01*
X39930121Y-121608682D01*
G37*
G36*
X42289934Y-120486144D02*
X42373975Y-120502861D01*
X42505916Y-120557513D01*
X42505917Y-120557514D01*
X42624664Y-120636858D01*
X42725642Y-120737836D01*
X42725644Y-120737839D01*
X42804987Y-120856584D01*
X42859639Y-120988525D01*
X42887500Y-121128594D01*
X42887500Y-121271406D01*
X42859639Y-121411475D01*
X42804987Y-121543416D01*
X42738454Y-121642990D01*
X42725642Y-121662164D01*
X42624664Y-121763142D01*
X42624661Y-121763144D01*
X42505916Y-121842487D01*
X42373975Y-121897139D01*
X42289934Y-121913856D01*
X42233908Y-121925000D01*
X42091092Y-121925000D01*
X42035066Y-121913856D01*
X41951025Y-121897139D01*
X41819084Y-121842487D01*
X41700339Y-121763144D01*
X41700336Y-121763142D01*
X41599358Y-121662164D01*
X41586546Y-121642990D01*
X41520013Y-121543416D01*
X41465361Y-121411475D01*
X41437500Y-121271406D01*
X41437500Y-121128594D01*
X41465361Y-120988525D01*
X41520013Y-120856584D01*
X41599356Y-120737839D01*
X41599358Y-120737836D01*
X41700336Y-120636858D01*
X41819083Y-120557514D01*
X41819084Y-120557513D01*
X41951025Y-120502861D01*
X42035066Y-120486144D01*
X42091092Y-120475000D01*
X42233908Y-120475000D01*
X42289934Y-120486144D01*
X42289934Y-120486144D01*
G37*
G36*
X42289934Y-115486144D02*
X42373975Y-115502861D01*
X42505916Y-115557513D01*
X42505917Y-115557514D01*
X42624664Y-115636858D01*
X42725642Y-115737836D01*
X42725644Y-115737839D01*
X42804987Y-115856584D01*
X42859639Y-115988525D01*
X42887500Y-116128594D01*
X42887500Y-116271406D01*
X42859639Y-116411475D01*
X42804987Y-116543416D01*
X42804986Y-116543417D01*
X42725642Y-116662164D01*
X42624664Y-116763142D01*
X42624661Y-116763144D01*
X42505916Y-116842487D01*
X42373975Y-116897139D01*
X42289934Y-116913856D01*
X42233908Y-116925000D01*
X42091092Y-116925000D01*
X42035066Y-116913856D01*
X41951025Y-116897139D01*
X41819084Y-116842487D01*
X41700339Y-116763144D01*
X41700336Y-116763142D01*
X41599358Y-116662164D01*
X41520014Y-116543417D01*
X41520013Y-116543416D01*
X41465361Y-116411475D01*
X41437500Y-116271406D01*
X41437500Y-116128594D01*
X41465361Y-115988525D01*
X41520013Y-115856584D01*
X41599356Y-115737839D01*
X41599358Y-115737836D01*
X41700336Y-115636858D01*
X41819083Y-115557514D01*
X41819084Y-115557513D01*
X41951025Y-115502861D01*
X42035066Y-115486144D01*
X42091092Y-115475000D01*
X42233908Y-115475000D01*
X42289934Y-115486144D01*
X42289934Y-115486144D01*
G37*
G36*
X39930121Y-114608682D02*
X40043221Y-114642990D01*
X40147455Y-114698704D01*
X40238817Y-114773683D01*
X40313796Y-114865045D01*
X40369510Y-114969279D01*
X40403818Y-115082379D01*
X40415403Y-115200000D01*
X40403818Y-115317621D01*
X40369510Y-115430721D01*
X40313796Y-115534955D01*
X40238817Y-115626317D01*
X40147455Y-115701296D01*
X40043221Y-115757010D01*
X39930121Y-115791318D01*
X39841974Y-115800000D01*
X39083026Y-115800000D01*
X38994879Y-115791318D01*
X38881779Y-115757010D01*
X38777545Y-115701296D01*
X38686183Y-115626317D01*
X38611204Y-115534955D01*
X38555490Y-115430721D01*
X38521182Y-115317621D01*
X38509597Y-115200000D01*
X38521182Y-115082379D01*
X38555490Y-114969279D01*
X38611204Y-114865045D01*
X38686183Y-114773683D01*
X38777545Y-114698704D01*
X38881779Y-114642990D01*
X38994879Y-114608682D01*
X39083026Y-114600000D01*
X39841974Y-114600000D01*
X39930121Y-114608682D01*
X39930121Y-114608682D01*
G37*
G36*
X91860630Y-113259099D02*
X92020855Y-113307703D01*
X92168520Y-113386631D01*
X92297949Y-113492851D01*
X92404169Y-113622280D01*
X92483097Y-113769945D01*
X92531701Y-113930170D01*
X92548112Y-114096800D01*
X92531701Y-114263430D01*
X92483097Y-114423655D01*
X92404169Y-114571320D01*
X92297949Y-114700749D01*
X92168520Y-114806969D01*
X92020855Y-114885897D01*
X91860630Y-114934501D01*
X91735752Y-114946800D01*
X91652248Y-114946800D01*
X91527370Y-114934501D01*
X91367145Y-114885897D01*
X91219480Y-114806969D01*
X91090051Y-114700749D01*
X90983831Y-114571320D01*
X90904903Y-114423655D01*
X90856299Y-114263430D01*
X90839888Y-114096800D01*
X90856299Y-113930170D01*
X90904903Y-113769945D01*
X90983831Y-113622280D01*
X91090051Y-113492851D01*
X91219480Y-113386631D01*
X91367145Y-113307703D01*
X91527370Y-113259099D01*
X91652248Y-113246800D01*
X91735752Y-113246800D01*
X91860630Y-113259099D01*
X91860630Y-113259099D01*
G37*
G36*
X42574958Y-110752906D02*
X42595935Y-110754972D01*
X42643035Y-110769260D01*
X42784339Y-110812124D01*
X42957974Y-110904933D01*
X43110166Y-111029834D01*
X43235067Y-111182026D01*
X43327876Y-111355661D01*
X43385028Y-111544066D01*
X43404326Y-111740000D01*
X43385028Y-111935934D01*
X43327876Y-112124339D01*
X43235067Y-112297974D01*
X43110166Y-112450166D01*
X42957974Y-112575067D01*
X42784339Y-112667876D01*
X42643035Y-112710740D01*
X42595935Y-112725028D01*
X42574958Y-112727094D01*
X42449100Y-112739490D01*
X42350900Y-112739490D01*
X42225042Y-112727094D01*
X42204065Y-112725028D01*
X42156965Y-112710740D01*
X42015661Y-112667876D01*
X41842026Y-112575067D01*
X41689834Y-112450166D01*
X41564933Y-112297974D01*
X41472124Y-112124339D01*
X41414972Y-111935934D01*
X41395674Y-111740000D01*
X41414972Y-111544066D01*
X41472124Y-111355661D01*
X41564933Y-111182026D01*
X41689834Y-111029834D01*
X41842026Y-110904933D01*
X42015661Y-110812124D01*
X42156965Y-110769260D01*
X42204065Y-110754972D01*
X42225042Y-110752906D01*
X42350900Y-110740510D01*
X42449100Y-110740510D01*
X42574958Y-110752906D01*
X42574958Y-110752906D01*
G37*
G36*
X92544000Y-112406800D02*
X90844000Y-112406800D01*
X90844000Y-110706800D01*
X92544000Y-110706800D01*
X92544000Y-112406800D01*
X92544000Y-112406800D01*
G37*
G36*
X39949590Y-111197045D02*
X40020429Y-111211136D01*
X40120523Y-111252597D01*
X40210607Y-111312789D01*
X40287211Y-111389393D01*
X40287213Y-111389396D01*
X40347403Y-111479477D01*
X40388864Y-111579571D01*
X40410000Y-111685830D01*
X40410000Y-111794170D01*
X40388864Y-111900429D01*
X40372681Y-111939497D01*
X40347403Y-112000523D01*
X40287211Y-112090607D01*
X40210607Y-112167211D01*
X40210604Y-112167213D01*
X40120523Y-112227403D01*
X40020429Y-112268864D01*
X39949590Y-112282955D01*
X39914171Y-112290000D01*
X39805829Y-112290000D01*
X39770410Y-112282955D01*
X39699571Y-112268864D01*
X39599477Y-112227403D01*
X39509396Y-112167213D01*
X39509393Y-112167211D01*
X39432789Y-112090607D01*
X39372597Y-112000523D01*
X39347319Y-111939497D01*
X39331136Y-111900429D01*
X39310000Y-111794170D01*
X39310000Y-111685830D01*
X39331136Y-111579571D01*
X39372597Y-111479477D01*
X39432787Y-111389396D01*
X39432789Y-111389393D01*
X39509393Y-111312789D01*
X39599477Y-111252597D01*
X39699571Y-111211136D01*
X39770410Y-111197045D01*
X39805829Y-111190000D01*
X39914171Y-111190000D01*
X39949590Y-111197045D01*
X39949590Y-111197045D01*
G37*
G36*
X84240630Y-110312699D02*
X84400855Y-110361303D01*
X84548520Y-110440231D01*
X84677949Y-110546451D01*
X84784169Y-110675880D01*
X84863097Y-110823545D01*
X84911701Y-110983770D01*
X84928112Y-111150400D01*
X84911701Y-111317030D01*
X84863097Y-111477255D01*
X84784169Y-111624920D01*
X84677949Y-111754349D01*
X84548520Y-111860569D01*
X84400855Y-111939497D01*
X84240630Y-111988101D01*
X84115752Y-112000400D01*
X84032248Y-112000400D01*
X83907370Y-111988101D01*
X83747145Y-111939497D01*
X83599480Y-111860569D01*
X83470051Y-111754349D01*
X83363831Y-111624920D01*
X83284903Y-111477255D01*
X83236299Y-111317030D01*
X83219888Y-111150400D01*
X83236299Y-110983770D01*
X83284903Y-110823545D01*
X83363831Y-110675880D01*
X83470051Y-110546451D01*
X83599480Y-110440231D01*
X83747145Y-110361303D01*
X83907370Y-110312699D01*
X84032248Y-110300400D01*
X84115752Y-110300400D01*
X84240630Y-110312699D01*
X84240630Y-110312699D01*
G37*
G36*
X79160630Y-110312699D02*
X79320855Y-110361303D01*
X79468520Y-110440231D01*
X79597949Y-110546451D01*
X79704169Y-110675880D01*
X79783097Y-110823545D01*
X79831701Y-110983770D01*
X79848112Y-111150400D01*
X79831701Y-111317030D01*
X79783097Y-111477255D01*
X79704169Y-111624920D01*
X79597949Y-111754349D01*
X79468520Y-111860569D01*
X79320855Y-111939497D01*
X79160630Y-111988101D01*
X79035752Y-112000400D01*
X78952248Y-112000400D01*
X78827370Y-111988101D01*
X78667145Y-111939497D01*
X78519480Y-111860569D01*
X78390051Y-111754349D01*
X78283831Y-111624920D01*
X78204903Y-111477255D01*
X78156299Y-111317030D01*
X78139888Y-111150400D01*
X78156299Y-110983770D01*
X78204903Y-110823545D01*
X78283831Y-110675880D01*
X78390051Y-110546451D01*
X78519480Y-110440231D01*
X78667145Y-110361303D01*
X78827370Y-110312699D01*
X78952248Y-110300400D01*
X79035752Y-110300400D01*
X79160630Y-110312699D01*
X79160630Y-110312699D01*
G37*
G36*
X76620630Y-110312699D02*
X76780855Y-110361303D01*
X76928520Y-110440231D01*
X77057949Y-110546451D01*
X77164169Y-110675880D01*
X77243097Y-110823545D01*
X77291701Y-110983770D01*
X77308112Y-111150400D01*
X77291701Y-111317030D01*
X77243097Y-111477255D01*
X77164169Y-111624920D01*
X77057949Y-111754349D01*
X76928520Y-111860569D01*
X76780855Y-111939497D01*
X76620630Y-111988101D01*
X76495752Y-112000400D01*
X76412248Y-112000400D01*
X76287370Y-111988101D01*
X76127145Y-111939497D01*
X75979480Y-111860569D01*
X75850051Y-111754349D01*
X75743831Y-111624920D01*
X75664903Y-111477255D01*
X75616299Y-111317030D01*
X75599888Y-111150400D01*
X75616299Y-110983770D01*
X75664903Y-110823545D01*
X75743831Y-110675880D01*
X75850051Y-110546451D01*
X75979480Y-110440231D01*
X76127145Y-110361303D01*
X76287370Y-110312699D01*
X76412248Y-110300400D01*
X76495752Y-110300400D01*
X76620630Y-110312699D01*
X76620630Y-110312699D01*
G37*
G36*
X74080630Y-110312699D02*
X74240855Y-110361303D01*
X74388520Y-110440231D01*
X74517949Y-110546451D01*
X74624169Y-110675880D01*
X74703097Y-110823545D01*
X74751701Y-110983770D01*
X74768112Y-111150400D01*
X74751701Y-111317030D01*
X74703097Y-111477255D01*
X74624169Y-111624920D01*
X74517949Y-111754349D01*
X74388520Y-111860569D01*
X74240855Y-111939497D01*
X74080630Y-111988101D01*
X73955752Y-112000400D01*
X73872248Y-112000400D01*
X73747370Y-111988101D01*
X73587145Y-111939497D01*
X73439480Y-111860569D01*
X73310051Y-111754349D01*
X73203831Y-111624920D01*
X73124903Y-111477255D01*
X73076299Y-111317030D01*
X73059888Y-111150400D01*
X73076299Y-110983770D01*
X73124903Y-110823545D01*
X73203831Y-110675880D01*
X73310051Y-110546451D01*
X73439480Y-110440231D01*
X73587145Y-110361303D01*
X73747370Y-110312699D01*
X73872248Y-110300400D01*
X73955752Y-110300400D01*
X74080630Y-110312699D01*
X74080630Y-110312699D01*
G37*
G36*
X72224000Y-112000400D02*
X70524000Y-112000400D01*
X70524000Y-110300400D01*
X72224000Y-110300400D01*
X72224000Y-112000400D01*
X72224000Y-112000400D01*
G37*
G36*
X81700630Y-110312699D02*
X81860855Y-110361303D01*
X82008520Y-110440231D01*
X82137949Y-110546451D01*
X82244169Y-110675880D01*
X82323097Y-110823545D01*
X82371701Y-110983770D01*
X82388112Y-111150400D01*
X82371701Y-111317030D01*
X82323097Y-111477255D01*
X82244169Y-111624920D01*
X82137949Y-111754349D01*
X82008520Y-111860569D01*
X81860855Y-111939497D01*
X81700630Y-111988101D01*
X81575752Y-112000400D01*
X81492248Y-112000400D01*
X81367370Y-111988101D01*
X81207145Y-111939497D01*
X81059480Y-111860569D01*
X80930051Y-111754349D01*
X80823831Y-111624920D01*
X80744903Y-111477255D01*
X80696299Y-111317030D01*
X80679888Y-111150400D01*
X80696299Y-110983770D01*
X80744903Y-110823545D01*
X80823831Y-110675880D01*
X80930051Y-110546451D01*
X81059480Y-110440231D01*
X81207145Y-110361303D01*
X81367370Y-110312699D01*
X81492248Y-110300400D01*
X81575752Y-110300400D01*
X81700630Y-110312699D01*
X81700630Y-110312699D01*
G37*
G36*
X43399490Y-110199490D02*
X41400510Y-110199490D01*
X41400510Y-108200510D01*
X43399490Y-108200510D01*
X43399490Y-110199490D01*
X43399490Y-110199490D01*
G37*
G36*
X39949590Y-108657045D02*
X40020429Y-108671136D01*
X40120523Y-108712597D01*
X40210607Y-108772789D01*
X40287211Y-108849393D01*
X40287213Y-108849396D01*
X40347403Y-108939477D01*
X40388864Y-109039571D01*
X40410000Y-109145830D01*
X40410000Y-109254170D01*
X40388864Y-109360429D01*
X40347403Y-109460523D01*
X40287211Y-109550607D01*
X40210607Y-109627211D01*
X40210604Y-109627213D01*
X40120523Y-109687403D01*
X40020429Y-109728864D01*
X39949590Y-109742955D01*
X39914171Y-109750000D01*
X39805829Y-109750000D01*
X39770410Y-109742955D01*
X39699571Y-109728864D01*
X39599477Y-109687403D01*
X39509396Y-109627213D01*
X39509393Y-109627211D01*
X39432789Y-109550607D01*
X39372597Y-109460523D01*
X39331136Y-109360429D01*
X39310000Y-109254170D01*
X39310000Y-109145830D01*
X39331136Y-109039571D01*
X39372597Y-108939477D01*
X39432787Y-108849396D01*
X39432789Y-108849393D01*
X39509393Y-108772789D01*
X39599477Y-108712597D01*
X39699571Y-108671136D01*
X39770410Y-108657045D01*
X39805829Y-108650000D01*
X39914171Y-108650000D01*
X39949590Y-108657045D01*
X39949590Y-108657045D01*
G37*
G36*
X123022905Y-103694556D02*
X123119496Y-103713769D01*
X123232559Y-103760602D01*
X123392454Y-103826832D01*
X123638114Y-103990977D01*
X123847023Y-104199886D01*
X124011168Y-104445546D01*
X124124231Y-104718505D01*
X124181870Y-105008274D01*
X124181870Y-105303726D01*
X124124231Y-105593495D01*
X124011168Y-105866454D01*
X123847023Y-106112114D01*
X123638114Y-106321023D01*
X123392454Y-106485168D01*
X123232559Y-106551398D01*
X123119496Y-106598231D01*
X123030818Y-106615870D01*
X122829726Y-106655870D01*
X122534274Y-106655870D01*
X122333182Y-106615870D01*
X122244504Y-106598231D01*
X122131441Y-106551398D01*
X121971546Y-106485168D01*
X121725886Y-106321023D01*
X121516977Y-106112114D01*
X121352832Y-105866454D01*
X121239769Y-105593495D01*
X121182130Y-105303726D01*
X121182130Y-105008274D01*
X121239769Y-104718505D01*
X121352832Y-104445546D01*
X121516977Y-104199886D01*
X121725886Y-103990977D01*
X121971546Y-103826832D01*
X122131441Y-103760602D01*
X122244504Y-103713769D01*
X122341095Y-103694556D01*
X122534274Y-103656130D01*
X122829726Y-103656130D01*
X123022905Y-103694556D01*
X123022905Y-103694556D01*
G37*
G36*
X171832905Y-103654556D02*
X171929496Y-103673769D01*
X172026064Y-103713769D01*
X172202454Y-103786832D01*
X172448114Y-103950977D01*
X172657023Y-104159886D01*
X172821168Y-104405546D01*
X172934231Y-104678505D01*
X172991870Y-104968274D01*
X172991870Y-105263726D01*
X172934231Y-105553495D01*
X172821168Y-105826454D01*
X172657023Y-106072114D01*
X172448114Y-106281023D01*
X172202454Y-106445168D01*
X172105885Y-106485168D01*
X171929496Y-106558231D01*
X171832905Y-106577444D01*
X171639726Y-106615870D01*
X171344274Y-106615870D01*
X171151095Y-106577444D01*
X171054504Y-106558231D01*
X170878115Y-106485168D01*
X170781546Y-106445168D01*
X170535886Y-106281023D01*
X170326977Y-106072114D01*
X170162832Y-105826454D01*
X170049769Y-105553495D01*
X169992130Y-105263726D01*
X169992130Y-104968274D01*
X170049769Y-104678505D01*
X170162832Y-104405546D01*
X170326977Y-104159886D01*
X170535886Y-103950977D01*
X170781546Y-103786832D01*
X170957936Y-103713769D01*
X171054504Y-103673769D01*
X171151095Y-103654556D01*
X171344274Y-103616130D01*
X171639726Y-103616130D01*
X171832905Y-103654556D01*
X171832905Y-103654556D01*
G37*
G36*
X47050026Y-101716115D02*
X47268412Y-101806573D01*
X47464958Y-101937901D01*
X47632099Y-102105042D01*
X47763427Y-102301588D01*
X47853885Y-102519974D01*
X47900000Y-102751809D01*
X47900000Y-102988191D01*
X47853885Y-103220026D01*
X47763427Y-103438412D01*
X47632099Y-103634958D01*
X47464958Y-103802099D01*
X47268412Y-103933427D01*
X47050026Y-104023885D01*
X46818191Y-104070000D01*
X46581809Y-104070000D01*
X46349974Y-104023885D01*
X46131588Y-103933427D01*
X45935042Y-103802099D01*
X45767901Y-103634958D01*
X45636573Y-103438412D01*
X45546115Y-103220026D01*
X45500000Y-102988191D01*
X45500000Y-102751809D01*
X45546115Y-102519974D01*
X45636573Y-102301588D01*
X45767901Y-102105042D01*
X45935042Y-101937901D01*
X46131588Y-101806573D01*
X46349974Y-101716115D01*
X46581809Y-101670000D01*
X46818191Y-101670000D01*
X47050026Y-101716115D01*
X47050026Y-101716115D01*
G37*
G36*
X42260026Y-101716115D02*
X42478412Y-101806573D01*
X42674958Y-101937901D01*
X42842099Y-102105042D01*
X42973427Y-102301588D01*
X43063885Y-102519974D01*
X43110000Y-102751809D01*
X43110000Y-102988191D01*
X43063885Y-103220026D01*
X42973427Y-103438412D01*
X42842099Y-103634958D01*
X42674958Y-103802099D01*
X42478412Y-103933427D01*
X42260026Y-104023885D01*
X42028191Y-104070000D01*
X41791809Y-104070000D01*
X41559974Y-104023885D01*
X41341588Y-103933427D01*
X41145042Y-103802099D01*
X40977901Y-103634958D01*
X40846573Y-103438412D01*
X40756115Y-103220026D01*
X40710000Y-102988191D01*
X40710000Y-102751809D01*
X40756115Y-102519974D01*
X40846573Y-102301588D01*
X40977901Y-102105042D01*
X41145042Y-101937901D01*
X41341588Y-101806573D01*
X41559974Y-101716115D01*
X41791809Y-101670000D01*
X42028191Y-101670000D01*
X42260026Y-101716115D01*
X42260026Y-101716115D01*
G37*
G36*
X188340935Y-98538429D02*
X188437534Y-98557644D01*
X188630560Y-98637598D01*
X188709885Y-98670455D01*
X188710517Y-98670717D01*
X188952920Y-98832687D01*
X188956197Y-98834876D01*
X189165124Y-99043803D01*
X189165126Y-99043806D01*
X189329073Y-99289168D01*
X189329284Y-99289485D01*
X189442356Y-99562467D01*
X189500000Y-99852261D01*
X189500000Y-100147739D01*
X189442356Y-100437533D01*
X189329284Y-100710515D01*
X189165124Y-100956197D01*
X188956197Y-101165124D01*
X188956194Y-101165126D01*
X188710517Y-101329283D01*
X188437534Y-101442356D01*
X188340935Y-101461571D01*
X188147739Y-101500000D01*
X187852261Y-101500000D01*
X187659065Y-101461571D01*
X187562466Y-101442356D01*
X187289483Y-101329283D01*
X187043806Y-101165126D01*
X187043803Y-101165124D01*
X186834876Y-100956197D01*
X186670716Y-100710515D01*
X186557644Y-100437533D01*
X186500000Y-100147739D01*
X186500000Y-99852261D01*
X186557644Y-99562467D01*
X186670716Y-99289485D01*
X186670928Y-99289168D01*
X186834874Y-99043806D01*
X186834876Y-99043803D01*
X187043803Y-98834876D01*
X187047080Y-98832687D01*
X187289483Y-98670717D01*
X187290116Y-98670455D01*
X187369440Y-98637598D01*
X187562466Y-98557644D01*
X187659065Y-98538429D01*
X187852261Y-98500000D01*
X188147739Y-98500000D01*
X188340935Y-98538429D01*
X188340935Y-98538429D01*
G37*
G36*
X43110000Y-100570000D02*
X40710000Y-100570000D01*
X40710000Y-98170000D01*
X43110000Y-98170000D01*
X43110000Y-100570000D01*
X43110000Y-100570000D01*
G37*
G36*
X47900000Y-100570000D02*
X45500000Y-100570000D01*
X45500000Y-98170000D01*
X47900000Y-98170000D01*
X47900000Y-100570000D01*
X47900000Y-100570000D01*
G37*
G36*
X123022905Y-96538556D02*
X123119496Y-96557769D01*
X123232559Y-96604602D01*
X123392454Y-96670832D01*
X123638114Y-96834977D01*
X123847023Y-97043886D01*
X124011168Y-97289546D01*
X124124231Y-97562505D01*
X124181870Y-97852274D01*
X124181870Y-98147726D01*
X124124231Y-98437495D01*
X124011168Y-98710454D01*
X123847023Y-98956114D01*
X123638114Y-99165023D01*
X123392454Y-99329168D01*
X123232559Y-99395398D01*
X123119496Y-99442231D01*
X123030818Y-99459870D01*
X122829726Y-99499870D01*
X122534274Y-99499870D01*
X122333182Y-99459870D01*
X122244504Y-99442231D01*
X122131441Y-99395398D01*
X121971546Y-99329168D01*
X121725886Y-99165023D01*
X121516977Y-98956114D01*
X121352832Y-98710454D01*
X121239769Y-98437495D01*
X121182130Y-98147726D01*
X121182130Y-97852274D01*
X121239769Y-97562505D01*
X121352832Y-97289546D01*
X121516977Y-97043886D01*
X121725886Y-96834977D01*
X121971546Y-96670832D01*
X122131441Y-96604602D01*
X122244504Y-96557769D01*
X122341095Y-96538556D01*
X122534274Y-96500130D01*
X122829726Y-96500130D01*
X123022905Y-96538556D01*
X123022905Y-96538556D01*
G37*
G36*
X171832905Y-96498556D02*
X171929496Y-96517769D01*
X172026064Y-96557769D01*
X172202454Y-96630832D01*
X172448114Y-96794977D01*
X172657023Y-97003886D01*
X172821168Y-97249546D01*
X172934231Y-97522505D01*
X172991870Y-97812274D01*
X172991870Y-98107726D01*
X172934231Y-98397495D01*
X172821168Y-98670454D01*
X172657023Y-98916114D01*
X172448114Y-99125023D01*
X172202454Y-99289168D01*
X172105885Y-99329168D01*
X171929496Y-99402231D01*
X171832905Y-99421444D01*
X171639726Y-99459870D01*
X171344274Y-99459870D01*
X171151095Y-99421444D01*
X171054504Y-99402231D01*
X170878115Y-99329168D01*
X170781546Y-99289168D01*
X170535886Y-99125023D01*
X170326977Y-98916114D01*
X170162832Y-98670454D01*
X170049769Y-98397495D01*
X169992130Y-98107726D01*
X169992130Y-97812274D01*
X170049769Y-97522505D01*
X170162832Y-97249546D01*
X170326977Y-97003886D01*
X170535886Y-96794977D01*
X170781546Y-96630832D01*
X170957936Y-96557769D01*
X171054504Y-96517769D01*
X171151095Y-96498556D01*
X171344274Y-96460130D01*
X171639726Y-96460130D01*
X171832905Y-96498556D01*
X171832905Y-96498556D01*
G37*
M02*
